<svg version="1.1" id="Layer_1" xmlns="http://www.w3.org/2000/svg" xmlns:xlink="http://www.w3.org/1999/xlink" x="0px" y="0px"
	 width="100%" viewBox="0 0 768 768" enable-background="new 0 0 768 768" xml:space="preserve">
<path fill="#009B3A" opacity="1.000000" stroke="none" 
	d="
M508.000000,769.000000 
	C338.666656,769.000000 169.833328,769.000000 1.000000,769.000000 
	C1.000000,513.000000 1.000000,257.000000 1.000000,1.000000 
	C257.000000,1.000000 513.000000,1.000000 769.000000,1.000000 
	C769.000000,257.000000 769.000000,513.000000 769.000000,769.000000 
	C682.166687,769.000000 595.333313,769.000000 508.000000,769.000000 
M317.609619,573.894348 
	C338.804321,587.418640 360.045959,600.870605 381.140808,614.548889 
	C384.152679,616.501709 386.120148,616.308838 389.037048,614.443604 
	C500.975067,542.863586 612.972900,471.377075 724.960205,399.874115 
	C732.489319,395.066803 739.998169,390.227814 747.968933,385.113190 
	C746.291687,383.914612 745.154602,383.021332 743.941711,382.246735 
	C625.506409,306.611603 507.059631,230.994415 388.662201,155.300095 
	C386.076843,153.647217 384.280243,153.436630 381.596741,155.152618 
	C263.064148,230.950134 144.480209,306.667419 25.911257,382.408142 
	C24.739273,383.156830 23.684490,384.088989 22.197577,385.223450 
	C120.848396,448.221283 218.928406,510.854614 317.609619,573.894348 
z"/>
<path fill="#FDDF00" opacity="1.000000" stroke="none" 
	d="
M317.309021,573.691162 
	C218.928406,510.854614 120.848396,448.221283 22.197577,385.223450 
	C23.684490,384.088989 24.739273,383.156830 25.911257,382.408142 
	C144.480209,306.667419 263.064148,230.950134 381.596741,155.152618 
	C384.280243,153.436630 386.076843,153.647217 388.662201,155.300095 
	C507.059631,230.994415 625.506409,306.611603 743.941711,382.246735 
	C745.154602,383.021332 746.291687,383.914612 747.968933,385.113190 
	C739.998169,390.227814 732.489319,395.066803 724.960205,399.874115 
	C612.972900,471.377075 500.975067,542.863586 389.037048,614.443604 
	C386.120148,616.308838 384.152679,616.501709 381.140808,614.548889 
	C360.045959,600.870605 338.804321,587.418640 317.309021,573.691162 
M536.819885,405.373169 
	C538.824158,389.400513 538.667908,373.450134 535.691040,357.624420 
	C518.205627,264.669159 424.117340,209.583755 334.645599,240.505569 
	C293.154541,254.845062 263.302460,282.738373 244.735840,323.492035 
	C242.171677,331.071930 239.607513,338.651825 236.758972,346.925079 
	C231.502396,366.329254 230.556778,386.042419 233.265152,405.865723 
	C245.470505,495.199799 332.432190,555.247864 420.069977,533.848755 
	C475.961609,520.201294 512.880249,484.841003 531.626831,429.601715 
	C533.302002,421.827637 534.977173,414.053558 536.819885,405.373169 
z"/>
<path fill="#012876" opacity="1.000000" stroke="none" 
	d="
M531.198608,430.216187 
	C512.880249,484.841003 475.961609,520.201294 420.069977,533.848755 
	C332.432190,555.247864 245.470505,495.199799 233.265152,405.865723 
	C230.556778,386.042419 231.502396,366.329254 237.338455,346.567505 
	C271.662842,340.791565 305.479767,339.696442 339.480743,343.807404 
	C393.257599,350.309387 442.951324,368.103058 488.122192,397.900513 
	C503.078552,407.766571 516.872986,419.394043 531.198608,430.216187 
M487.540741,468.081818 
	C488.943481,467.932068 490.346222,467.782349 491.362885,467.673828 
	C491.947723,466.147369 492.507355,464.686737 492.873962,463.729858 
	C491.575836,462.597717 490.316681,461.499542 489.363037,460.667847 
	C488.011993,461.719025 486.709106,462.732727 485.688782,463.526581 
	C486.182159,465.271820 486.685028,467.050507 487.211945,468.183167 
	C487.003967,468.084991 486.796021,467.986786 486.588043,467.888611 
	C486.800110,468.186890 487.012146,468.485168 487.540741,468.081818 
M257.163055,439.427002 
	C257.269836,439.324127 257.392700,439.231567 257.470398,439.110107 
	C257.486786,439.084473 257.337646,438.952881 257.264771,438.870117 
	C257.108185,439.192139 256.951599,439.514160 257.425079,439.169312 
	C257.643494,437.612518 257.861908,436.055725 258.099976,434.358917 
	C257.182434,433.618286 255.774628,432.481934 254.839081,431.726776 
	C253.393600,432.778900 251.985153,433.804016 251.008636,434.514801 
	C251.603699,436.021576 252.185913,437.495789 252.276062,437.724030 
	C254.356216,438.692535 255.565475,439.255554 257.163055,439.427002 
M382.815308,458.009460 
	C384.699707,456.265106 386.287445,456.494141 387.902649,458.376099 
	C387.975555,458.262695 388.048492,458.149323 388.121429,458.035950 
	C388.028442,458.150665 387.935608,458.265533 387.842468,458.380127 
	C387.749359,458.494781 387.655975,458.609192 388.078003,458.025299 
	C388.483459,456.014740 388.888947,454.004150 389.215546,452.384583 
	C387.829956,451.280884 386.237427,450.012421 384.993652,449.021698 
	C383.548889,450.154602 381.948364,451.409607 380.741882,452.355652 
	C381.244904,454.374573 381.776764,456.509338 382.193390,458.073792 
	C381.946167,458.142700 381.698975,458.211609 381.451782,458.280518 
	C381.733826,458.364288 382.015900,458.448059 382.815308,458.009460 
M264.105133,357.201630 
	C264.534180,356.740479 264.963196,356.279297 265.050262,356.185730 
	C263.181793,354.950836 261.416473,353.784088 259.950623,352.815277 
	C258.541718,353.757782 256.793030,354.927551 255.340927,355.898956 
	C255.938232,357.530365 256.701508,359.615143 257.268097,361.162720 
	C259.252472,361.162720 261.270142,361.162720 263.038330,361.162720 
	C263.178619,360.173523 263.354797,358.931366 264.105133,357.201630 
M493.342377,435.398773 
	C493.102173,434.726593 492.862000,434.054382 492.793030,433.861298 
	C490.916260,435.246521 489.167633,436.537109 488.226562,437.231689 
	C488.772797,439.329285 489.234589,441.102478 489.621826,442.589569 
	C491.291229,442.482788 493.185120,442.361633 494.399475,442.283936 
	C495.416473,440.352020 496.274963,438.721222 497.081451,437.189209 
	C496.118164,436.845734 494.939514,436.425476 493.342377,435.398773 
M326.186035,467.488159 
	C327.050323,466.514679 327.914581,465.541168 328.346680,465.054474 
	C326.573059,463.754852 324.818481,462.469177 323.549896,461.539612 
	C322.026886,462.575989 320.276550,463.767059 319.109711,464.561066 
	C319.710754,466.598419 320.282898,468.537842 320.706573,469.974030 
	C322.581177,469.974030 324.752838,469.974030 326.982971,469.974030 
	C326.798676,469.481628 326.570129,468.870941 326.186035,467.488159 
M268.326569,420.587494 
	C269.278595,422.272186 270.230591,423.956909 271.171600,425.622131 
	C272.421204,425.622131 274.617371,425.622131 276.283630,425.622131 
	C276.817627,423.969330 277.424530,422.090851 277.899048,420.622192 
	C276.484314,419.505249 274.774597,418.155457 273.735687,417.335236 
	C272.134613,418.219330 270.496399,419.123932 268.326569,420.587494 
M326.991516,387.072052 
	C326.870117,386.959137 326.763519,386.816406 326.621155,386.745728 
	C326.548828,386.709839 326.336548,386.778809 326.315582,386.842560 
	C325.757874,388.538391 325.216888,390.239777 324.673035,391.940216 
	C324.035675,391.199860 323.398315,390.459534 322.760986,389.719177 
	C323.327515,391.319550 323.894073,392.919922 324.440613,394.463776 
	C325.649658,394.404449 327.118164,394.332397 328.706757,394.254456 
	C329.231018,393.002533 329.878754,391.455902 330.476105,390.029480 
	C329.515137,389.322479 328.413727,388.512146 326.991516,387.072052 
M432.743927,491.669189 
	C432.906494,491.701477 433.069275,491.758911 433.231598,491.757507 
	C433.345764,491.756531 433.547455,491.692963 433.560242,491.627899 
	C433.895538,489.921814 434.211273,488.211884 434.473053,486.809723 
	C433.149048,485.835907 431.744965,484.803223 430.868713,484.158752 
	C429.370178,485.173187 428.053162,486.064758 426.978424,486.792328 
	C427.449371,488.274933 428.005676,490.026306 428.477203,491.510651 
	C429.627258,491.435577 430.852386,491.355621 432.743927,491.669189 
M497.087738,449.993561 
	C496.215057,450.302399 495.342407,450.611206 494.707703,450.835815 
	C495.329285,452.556061 495.924805,454.204193 496.367645,455.429718 
	C498.002167,455.429718 499.482025,455.429718 500.719574,455.429718 
	C501.275665,453.957550 501.849335,452.438782 502.314178,451.208160 
	C500.969391,450.155884 499.572571,449.062866 498.174805,447.969086 
	C497.936584,448.596741 497.762543,449.055298 497.087738,449.993561 
M460.184967,487.658783 
	C461.517609,487.565308 462.850220,487.471863 463.845459,487.402069 
	C464.392822,485.978516 464.918518,484.611206 465.344025,483.504608 
	C464.055542,482.412659 462.674805,481.242523 461.657013,480.379974 
	C460.401855,481.462585 459.071472,482.610107 458.224030,483.341064 
	C458.687897,485.045685 459.081696,486.492828 460.184967,487.658783 
M398.891174,421.955292 
	C399.450470,423.491119 400.009766,425.026978 400.545349,426.497681 
	C401.727905,426.441162 403.185791,426.371521 404.642609,426.301910 
	C405.219788,425.032318 405.899719,423.536804 406.374329,422.492828 
	C404.953156,421.263580 403.633881,420.122498 402.725037,419.336365 
	C401.610291,420.153503 400.549591,420.931061 398.891174,421.955292 
M302.918335,438.251068 
	C302.593658,443.295044 307.095337,437.661285 307.397522,440.659180 
	C308.183563,438.676941 308.833649,437.037628 309.302063,435.856323 
	C307.920776,434.870361 306.607819,433.933167 305.415558,433.082153 
	C304.247345,433.906830 302.763580,434.954285 301.190643,436.064697 
	C301.760559,436.576172 302.240662,437.007019 302.918335,438.251068 
M387.130859,412.889862 
	C387.644012,411.321808 388.157166,409.753754 388.582092,408.455353 
	C387.441986,407.572449 386.073059,406.512360 385.086914,405.748688 
	C383.701538,406.759399 382.400482,407.708618 381.353394,408.472504 
	C381.724182,409.768524 382.148071,411.250275 382.522552,412.559235 
	C383.799286,412.654785 385.120850,412.753723 387.130859,412.889862 
M416.466217,473.313934 
	C417.927704,473.313934 419.389221,473.313934 420.659912,473.313934 
	C421.053223,472.057739 421.429321,470.856506 422.144653,468.571716 
	C419.725830,468.571716 417.641693,468.571716 415.268036,468.571716 
	C415.987427,470.686279 416.333038,471.702240 416.466217,473.313934 
M441.059723,474.224548 
	C442.039276,475.131012 443.271057,476.942261 443.945496,476.754272 
	C445.318604,476.371460 446.391083,474.910187 447.580566,473.899109 
	C444.826477,471.401093 442.689484,471.824127 441.059723,474.224548 
z"/>
<path fill="#012876" opacity="1.000000" stroke="none" 
	d="
M245.176254,322.906403 
	C263.302460,282.738373 293.154541,254.845062 334.645599,240.505569 
	C424.117340,209.583755 518.205627,264.669159 535.691040,357.624420 
	C538.667908,373.450134 538.824158,389.400513 536.470093,405.632080 
	C523.960510,396.936401 512.123413,387.497437 499.569427,379.134644 
	C477.852783,364.668213 454.741241,352.752960 429.910889,343.574524 
	C431.502747,342.324188 433.288910,341.448883 435.501892,340.364349 
	C435.862793,339.393524 436.608521,337.387604 437.127930,335.990356 
	C435.462433,334.777100 433.756531,333.534424 432.583710,332.680054 
	C430.940979,333.772369 429.175873,334.946045 427.477905,336.075073 
	C430.033752,338.417572 430.940063,340.729950 426.811432,342.570679 
	C389.506195,328.752533 351.367279,320.420471 311.947083,319.959930 
	C289.704651,319.700043 267.434113,321.844849 245.176254,322.906403 
z"/>
<path fill="#F5F9F8" opacity="1.000000" stroke="none" 
	d="
M244.956055,323.199219 
	C267.434113,321.844849 289.704651,319.700043 311.947083,319.959930 
	C351.367279,320.420471 389.506195,328.752533 427.015381,342.755005 
	C428.388306,343.448792 429.246735,343.699158 430.105164,343.949524 
	C454.741241,352.752960 477.852783,364.668213 499.569427,379.134644 
	C512.123413,387.497437 523.960510,396.936401 536.386292,406.085236 
	C534.977173,414.053558 533.302002,421.827637 531.412720,429.908936 
	C516.872986,419.394043 503.078552,407.766571 488.122192,397.900513 
	C442.951324,368.103058 393.257599,350.309387 339.480743,343.807404 
	C305.479767,339.696442 271.662842,340.791565 237.480652,346.220825 
	C239.607513,338.651825 242.171677,331.071930 244.956055,323.199219 
M265.978210,335.275360 
	C266.360596,336.542877 266.742981,337.810425 267.125397,339.077942 
	C267.566895,339.004272 268.008423,338.930603 268.449951,338.856934 
	C268.725983,337.050934 269.002014,335.244965 269.223114,333.798431 
	C274.497864,331.054962 275.463074,335.257019 277.478699,338.326721 
	C278.000214,334.095551 278.167542,330.052765 277.857544,326.046906 
	C277.796326,325.256134 275.927307,324.057495 274.840363,323.998505 
	C271.804138,323.833771 268.740814,324.167999 265.950836,324.293457 
	C265.950836,328.114716 265.950836,331.251038 265.978210,335.275360 
M335.166840,335.332336 
	C335.468811,331.930725 335.770782,328.529144 336.071991,325.136353 
	C329.643646,323.937439 332.119446,330.998108 328.570862,332.154358 
	C326.537170,324.416412 326.537170,324.416412 323.012878,324.337067 
	C322.618866,328.999329 322.225830,333.649994 321.832794,338.300659 
	C322.511047,338.368866 323.189301,338.437073 323.867554,338.505280 
	C324.345123,336.261261 324.822693,334.017273 325.389923,331.351868 
	C326.197540,334.256866 326.873016,336.686523 327.548492,339.116211 
	C328.008484,339.186859 328.468506,339.257538 328.928528,339.328186 
	C330.085297,337.032684 331.242065,334.737183 333.082947,331.084137 
	C333.082947,334.803192 333.082947,337.053864 333.082947,339.304535 
	C333.528870,339.341125 333.974823,339.377747 334.420746,339.414368 
	C334.650635,338.319489 334.880524,337.224640 335.166840,335.332336 
M464.577698,370.062012 
	C467.541656,364.573334 465.217529,361.714844 455.973938,359.479919 
	C449.842560,369.847107 449.628937,370.501740 451.786865,372.671143 
	C452.704010,371.320709 453.607880,369.989868 454.325500,368.933258 
	C460.533020,368.869904 458.855042,373.639404 459.427979,378.179596 
	C461.388672,374.882294 462.674957,372.719177 464.577698,370.062012 
M470.028778,382.563538 
	C472.513275,383.885620 474.997803,385.207703 477.855530,386.728363 
	C478.653046,380.582977 468.397583,382.893311 471.150940,375.997986 
	C473.946259,377.385376 476.312561,378.559814 478.678864,379.734283 
	C478.982849,379.224976 479.286835,378.715668 479.590790,378.206360 
	C477.328827,376.539429 475.066864,374.872498 472.804901,373.205566 
	C473.101501,372.630310 473.398071,372.055054 473.694672,371.479797 
	C476.655914,372.889526 479.617157,374.299225 482.617401,375.727509 
	C483.190826,372.691895 482.246429,371.916412 472.938416,367.774841 
	C470.660675,371.840454 468.357910,375.950714 465.962097,380.227081 
	C467.410095,381.040985 468.413635,381.605042 470.028778,382.563538 
M312.136475,337.964233 
	C313.516602,337.888153 314.896759,337.812042 316.276886,337.735962 
	C316.353210,337.088257 316.429535,336.440582 316.505890,335.792908 
	C313.101318,335.404877 309.696777,335.016846 306.090088,334.605774 
	C305.651642,327.558655 313.186310,334.253571 314.376953,329.194183 
	C312.698090,329.082397 311.147247,329.111755 309.651489,328.838989 
	C308.375824,328.606323 307.163513,328.026428 305.923157,327.600128 
	C306.020294,327.046814 306.117462,326.493469 306.214600,325.940125 
	C309.493896,325.940125 312.773193,325.940125 316.052490,325.940125 
	C316.087311,325.232178 316.122101,324.524231 316.156921,323.816315 
	C312.133148,323.494171 308.109406,323.172058 303.942993,322.838501 
	C303.759247,325.863892 303.564667,328.185333 303.492310,330.510651 
	C303.422028,332.769196 303.477051,335.031647 303.477051,337.943604 
	C306.328766,337.943604 308.789948,337.943604 312.136475,337.964233 
M504.585968,404.330078 
	C506.658539,404.027191 508.731140,403.724274 510.803680,403.421387 
	C510.343750,401.474609 510.095367,399.443115 509.360229,397.606476 
	C508.715759,395.996429 507.524994,394.605042 506.575531,393.117065 
	C507.081360,392.750549 507.587219,392.384003 508.093048,392.017487 
	C509.853790,394.076294 511.614532,396.135101 513.629333,398.490936 
	C514.368408,393.795532 512.097961,390.386353 508.007263,389.913452 
	C506.624023,389.753510 504.665131,390.456848 503.780701,391.472382 
	C503.136353,392.212250 503.409912,394.332153 504.005157,395.446381 
	C505.133698,397.558899 506.786774,399.391144 508.325500,401.480469 
	C502.465210,403.976227 503.774506,396.579956 500.070282,396.207336 
	C498.669403,400.302277 501.324615,402.123932 504.585968,404.330078 
M490.792603,391.783264 
	C488.732849,389.850433 486.673096,387.917603 484.054962,385.460785 
	C483.627563,390.834991 486.490540,393.005890 490.087006,394.034607 
	C491.601807,394.467896 494.085815,393.771454 495.168091,392.656006 
	C495.878204,391.924164 495.260468,389.316742 494.530273,387.918610 
	C493.546875,386.035645 491.882690,384.508240 490.510681,382.828217 
	C490.999603,382.376007 491.488495,381.923798 491.977417,381.471588 
	C493.866516,383.364410 495.755615,385.257233 498.268829,387.775391 
	C499.341614,383.246094 497.019043,381.144531 494.149445,380.138306 
	C492.351318,379.507782 490.028870,380.372681 487.941650,380.566589 
	C488.537048,382.709900 489.074036,384.871765 489.746826,386.990479 
	C490.260925,388.609406 490.946869,390.173798 490.792603,391.783264 
M400.193756,343.821503 
	C399.405823,346.537567 398.617889,349.253632 397.829926,351.969696 
	C398.310364,352.209106 398.790802,352.448486 399.271210,352.687897 
	C400.305298,351.153961 401.339386,349.620026 402.333954,348.144745 
	C407.327393,347.960907 408.188873,351.038818 407.977142,355.478149 
	C409.147278,354.594513 409.709991,353.731995 410.064697,352.791046 
	C410.551147,351.500580 410.569397,349.928162 411.330933,348.865417 
	C414.359131,344.639618 413.744293,341.953979 408.990540,340.231110 
	C406.868622,339.462097 404.656525,338.942017 402.277344,338.248322 
	C401.619904,340.041656 401.058990,341.571625 400.193756,343.821503 
M297.844604,331.235657 
	C297.207855,323.582611 294.290771,321.867889 285.121674,323.618286 
	C285.121674,328.357025 285.121674,333.048096 285.121674,337.799744 
	C290.619232,337.690796 296.091858,338.875793 297.844604,331.235657 
M436.251495,365.136536 
	C438.981659,366.444183 441.711823,367.751831 444.936310,369.296265 
	C446.020691,366.172943 447.913055,363.218384 447.770538,360.365509 
	C447.650421,357.961060 445.590210,354.335266 443.610779,353.709015 
	C441.591370,353.070129 437.739624,354.772736 436.329163,356.669189 
	C435.026093,358.421265 435.894592,361.788361 436.251495,365.136536 
M391.235809,335.077881 
	C388.723541,334.475006 386.211243,333.872101 383.363342,333.188690 
	C382.121674,338.291016 381.020630,342.815460 379.919586,347.339874 
	C380.523804,347.503265 381.128021,347.666626 381.732239,347.830017 
	C382.513977,346.214935 383.295746,344.599854 384.050476,343.040558 
	C387.897217,343.201691 392.261536,346.468231 394.409271,341.382751 
	C395.009705,339.961060 392.863403,337.379303 391.235809,335.077881 
M429.106323,348.347076 
	C426.233276,345.182739 422.999298,345.078705 419.936646,347.779846 
	C417.038055,350.336304 416.266174,353.699768 418.197357,357.211426 
	C419.900360,360.308136 422.880493,361.074371 425.902740,359.781769 
	C429.705475,358.155334 431.120178,354.919189 430.233673,350.813660 
	C430.096283,350.177399 429.785828,349.578491 429.106323,348.347076 
M519.321594,415.346497 
	C524.498169,416.080231 528.295593,413.803925 528.919128,409.365814 
	C529.448730,405.595459 528.007385,402.793304 524.065186,401.956085 
	C520.101868,401.114410 515.702087,404.127380 515.649414,408.331879 
	C515.621521,410.558533 517.562866,412.809875 519.321594,415.346497 
M362.038483,330.081238 
	C359.486359,329.702454 356.934235,329.323639 354.209381,328.919220 
	C353.430267,333.427673 352.737823,337.434387 351.958588,341.943542 
	C355.888611,342.382751 359.368866,342.771667 362.849152,343.160614 
	C362.912354,342.558136 362.975555,341.955688 363.038757,341.353210 
	C360.421539,340.723938 357.804291,340.094666 355.187073,339.465363 
	C355.106567,338.928619 355.026062,338.391876 354.945557,337.855103 
	C357.461823,337.426788 359.978088,336.998444 362.494354,336.570129 
	C362.477875,336.212250 362.461395,335.854340 362.444885,335.496460 
	C360.291565,334.810059 358.138245,334.123688 355.984894,333.437286 
	C356.079895,332.977478 356.174896,332.517670 356.269897,332.057861 
	C358.237579,332.314331 360.201019,332.697113 362.175079,332.763336 
	C362.934601,332.788818 363.718292,332.093842 364.490967,331.727112 
	C363.930450,331.220490 363.369965,330.713867 362.038483,330.081238 
M246.992020,331.776978 
	C247.343994,337.232880 249.479370,340.086700 253.396988,340.157898 
	C257.157654,340.226227 259.264893,338.019867 259.878448,334.588074 
	C260.560547,330.772675 259.173645,327.481293 255.399368,326.199921 
	C251.190704,324.771118 248.438721,326.905151 246.992020,331.776978 
z"/>
<path fill="#E7EAF2" opacity="1.000000" stroke="none" 
	d="
M387.574219,458.724915 
	C386.287445,456.494141 384.699707,456.265106 382.549652,458.299622 
	C382.283997,458.589783 382.308655,458.644104 382.308655,458.644104 
	C381.776764,456.509338 381.244904,454.374573 380.741882,452.355652 
	C381.948364,451.409607 383.548889,450.154602 384.993652,449.021698 
	C386.237427,450.012421 387.829956,451.280884 389.215546,452.384583 
	C388.888947,454.004150 388.483459,456.014740 387.841736,458.330170 
	C387.605499,458.635040 387.574219,458.724915 387.574219,458.724915 
z"/>
<path fill="#D6DCE9" opacity="1.000000" stroke="none" 
	d="
M263.818054,357.445404 
	C263.354797,358.931366 263.178619,360.173523 263.038330,361.162720 
	C261.270142,361.162720 259.252472,361.162720 257.268097,361.162720 
	C256.701508,359.615143 255.938232,357.530365 255.340927,355.898956 
	C256.793030,354.927551 258.541718,353.757782 259.950623,352.815277 
	C261.416473,353.784088 263.181793,354.950836 265.050262,356.185730 
	C264.963196,356.279297 264.534180,356.740479 263.818054,357.445404 
z"/>
<path fill="#F5F9F8" opacity="1.000000" stroke="none" 
	d="
M493.551636,435.701996 
	C494.939514,436.425476 496.118164,436.845734 497.081451,437.189209 
	C496.274963,438.721222 495.416473,440.352020 494.399475,442.283936 
	C493.185120,442.361633 491.291229,442.482788 489.621826,442.589569 
	C489.234589,441.102478 488.772797,439.329285 488.226562,437.231689 
	C489.167633,436.537109 490.916260,435.246521 492.793030,433.861298 
	C492.862000,434.054382 493.102173,434.726593 493.551636,435.701996 
z"/>
<path fill="#E7EAF2" opacity="1.000000" stroke="none" 
	d="
M326.263824,467.874207 
	C326.570129,468.870941 326.798676,469.481628 326.982971,469.974030 
	C324.752838,469.974030 322.581177,469.974030 320.706573,469.974030 
	C320.282898,468.537842 319.710754,466.598419 319.109711,464.561066 
	C320.276550,463.767059 322.026886,462.575989 323.549896,461.539612 
	C324.818481,462.469177 326.573059,463.754852 328.346680,465.054474 
	C327.914581,465.541168 327.050323,466.514679 326.263824,467.874207 
z"/>
<path fill="#E7EAF2" opacity="1.000000" stroke="none" 
	d="
M268.592377,420.308044 
	C270.496399,419.123932 272.134613,418.219330 273.735687,417.335236 
	C274.774597,418.155457 276.484314,419.505249 277.899048,420.622192 
	C277.424530,422.090851 276.817627,423.969330 276.283630,425.622131 
	C274.617371,425.622131 272.421204,425.622131 271.171600,425.622131 
	C270.230591,423.956909 269.278595,422.272186 268.592377,420.308044 
z"/>
<path fill="#D6DCE9" opacity="1.000000" stroke="none" 
	d="
M327.151917,387.386902 
	C328.413727,388.512146 329.515137,389.322479 330.476105,390.029480 
	C329.878754,391.455902 329.231018,393.002533 328.706757,394.254456 
	C327.118164,394.332397 325.649658,394.404449 324.440613,394.463776 
	C323.894073,392.919922 323.327515,391.319550 322.760986,389.719177 
	C323.398315,390.459534 324.035675,391.199860 324.673035,391.940216 
	C325.216888,390.239777 325.757874,388.538391 326.315582,386.842560 
	C326.336548,386.778809 326.548828,386.709839 326.621155,386.745728 
	C326.763519,386.816406 326.870117,386.959137 327.151917,387.386902 
z"/>
<path fill="#D6DCE9" opacity="1.000000" stroke="none" 
	d="
M432.410706,491.472412 
	C430.852386,491.355621 429.627258,491.435577 428.477203,491.510651 
	C428.005676,490.026306 427.449371,488.274933 426.978424,486.792328 
	C428.053162,486.064758 429.370178,485.173187 430.868713,484.158752 
	C431.744965,484.803223 433.149048,485.835907 434.473053,486.809723 
	C434.211273,488.211884 433.895538,489.921814 433.560242,491.627899 
	C433.547455,491.692963 433.345764,491.756531 433.231598,491.757507 
	C433.069275,491.758911 432.906494,491.701477 432.410706,491.472412 
z"/>
<path fill="#D6DCE9" opacity="1.000000" stroke="none" 
	d="
M497.338135,449.753693 
	C497.762543,449.055298 497.936584,448.596741 498.174805,447.969086 
	C499.572571,449.062866 500.969391,450.155884 502.314178,451.208160 
	C501.849335,452.438782 501.275665,453.957550 500.719574,455.429718 
	C499.482025,455.429718 498.002167,455.429718 496.367645,455.429718 
	C495.924805,454.204193 495.329285,452.556061 494.707703,450.835815 
	C495.342407,450.611206 496.215057,450.302399 497.338135,449.753693 
z"/>
<path fill="#E7EAF2" opacity="1.000000" stroke="none" 
	d="
M459.830231,487.799377 
	C459.081696,486.492828 458.687897,485.045685 458.224030,483.341064 
	C459.071472,482.610107 460.401855,481.462585 461.657013,480.379974 
	C462.674805,481.242523 464.055542,482.412659 465.344025,483.504608 
	C464.918518,484.611206 464.392822,485.978516 463.845459,487.402069 
	C462.850220,487.471863 461.517609,487.565308 459.830231,487.799377 
z"/>
<path fill="#E7EAF2" opacity="1.000000" stroke="none" 
	d="
M399.190002,421.831970 
	C400.549591,420.931061 401.610291,420.153503 402.725037,419.336365 
	C403.633881,420.122498 404.953156,421.263580 406.374329,422.492828 
	C405.899719,423.536804 405.219788,425.032318 404.642609,426.301910 
	C403.185791,426.371521 401.727905,426.441162 400.545349,426.497681 
	C400.009766,425.026978 399.450470,423.491119 399.190002,421.831970 
z"/>
<path fill="#D6DCE9" opacity="1.000000" stroke="none" 
	d="
M302.819519,437.844482 
	C302.240662,437.007019 301.760559,436.576172 301.190643,436.064697 
	C302.763580,434.954285 304.247345,433.906830 305.415558,433.082153 
	C306.607819,433.933167 307.920776,434.870361 309.302063,435.856323 
	C308.833649,437.037628 308.183563,438.676941 307.397522,440.659180 
	C307.095337,437.661285 302.593658,443.295044 302.819519,437.844482 
z"/>
<path fill="#E7EAF2" opacity="1.000000" stroke="none" 
	d="
M256.774719,439.818573 
	C255.565475,439.255554 254.356216,438.692535 252.276062,437.724030 
	C252.185913,437.495789 251.603699,436.021576 251.008636,434.514801 
	C251.985153,433.804016 253.393600,432.778900 254.839081,431.726776 
	C255.774628,432.481934 257.182434,433.618286 258.099976,434.358917 
	C257.861908,436.055725 257.643494,437.612518 257.119568,439.452332 
	C256.814056,439.735321 256.774719,439.818573 256.774719,439.818573 
z"/>
<path fill="#E7EAF2" opacity="1.000000" stroke="none" 
	d="
M386.786621,412.871246 
	C385.120850,412.753723 383.799286,412.654785 382.522552,412.559235 
	C382.148071,411.250275 381.724182,409.768524 381.353394,408.472504 
	C382.400482,407.708618 383.701538,406.759399 385.086914,405.748688 
	C386.073059,406.512360 387.441986,407.572449 388.582092,408.455353 
	C388.157166,409.753754 387.644012,411.321808 386.786621,412.871246 
z"/>
<path fill="#E7EAF2" opacity="1.000000" stroke="none" 
	d="
M487.187866,468.829224 
	C486.685028,467.050507 486.182159,465.271820 485.688782,463.526581 
	C486.709106,462.732727 488.011993,461.719025 489.363037,460.667847 
	C490.316681,461.499542 491.575836,462.597717 492.873962,463.729858 
	C492.507355,464.686737 491.947723,466.147369 491.362885,467.673828 
	C490.346222,467.782349 488.943481,467.932068 487.351074,468.411011 
	C487.161377,468.740173 487.187836,468.829224 487.187866,468.829224 
z"/>
<path fill="#D6DCE9" opacity="1.000000" stroke="none" 
	d="
M416.572449,473.016052 
	C416.333038,471.702240 415.987427,470.686279 415.268036,468.571716 
	C417.641693,468.571716 419.725830,468.571716 422.144653,468.571716 
	C421.429321,470.856506 421.053223,472.057739 420.659912,473.313934 
	C419.389221,473.313934 417.927704,473.313934 416.572449,473.016052 
z"/>
<path fill="#D6DCE9" opacity="1.000000" stroke="none" 
	d="
M440.837341,473.956757 
	C442.689484,471.824127 444.826477,471.401093 447.580566,473.899109 
	C446.391083,474.910187 445.318604,476.371460 443.945496,476.754272 
	C443.271057,476.942261 442.039276,475.131012 440.837341,473.956757 
z"/>
<path fill="#E7EAF2" opacity="1.000000" stroke="none" 
	d="
M387.584106,458.679382 
	C387.655975,458.609192 387.749359,458.494781 387.842468,458.380127 
	C387.935608,458.265533 388.028442,458.150665 388.121399,458.035950 
	C388.048492,458.149323 387.975555,458.262695 387.738434,458.550507 
	C387.574219,458.724915 387.605499,458.635040 387.584106,458.679382 
z"/>
<path fill="#E7EAF2" opacity="1.000000" stroke="none" 
	d="
M487.192780,468.761841 
	C487.012146,468.485168 486.800110,468.186890 486.588043,467.888611 
	C486.796021,467.986786 487.003967,468.084991 487.199890,468.506195 
	C487.187836,468.829224 487.161377,468.740173 487.192780,468.761841 
z"/>
<path fill="#E7EAF2" opacity="1.000000" stroke="none" 
	d="
M382.290955,458.560791 
	C382.015900,458.448059 381.733826,458.364288 381.451782,458.280518 
	C381.698975,458.211609 381.946167,458.142700 382.251038,458.358948 
	C382.308655,458.644104 382.283997,458.589783 382.290955,458.560791 
z"/>
<path fill="#E7EAF2" opacity="1.000000" stroke="none" 
	d="
M256.804504,439.785767 
	C256.951599,439.514160 257.108185,439.192139 257.264771,438.870117 
	C257.337646,438.952881 257.486786,439.084473 257.470398,439.110107 
	C257.392700,439.231567 257.269836,439.324127 256.968872,439.622803 
	C256.774719,439.818573 256.814056,439.735321 256.804504,439.785767 
z"/>
<path fill="#D6DCE9" opacity="1.000000" stroke="none" 
	d="
M429.910889,343.574524 
	C429.246735,343.699158 428.388306,343.448792 427.325928,343.014099 
	C430.940063,340.729950 430.033752,338.417572 427.477905,336.075073 
	C429.175873,334.946045 430.940979,333.772369 432.583710,332.680054 
	C433.756531,333.534424 435.462433,334.777100 437.127930,335.990356 
	C436.608521,337.387604 435.862793,339.393524 435.501892,340.364349 
	C433.288910,341.448883 431.502747,342.324188 429.910889,343.574524 
z"/>
<path fill="#23A955" opacity="1.000000" stroke="none" 
	d="
M265.964539,334.831360 
	C265.950836,331.251038 265.950836,328.114716 265.950836,324.293457 
	C268.740814,324.167999 271.804138,323.833771 274.840363,323.998505 
	C275.927307,324.057495 277.796326,325.256134 277.857544,326.046906 
	C278.167542,330.052765 278.000214,334.095551 277.478699,338.326721 
	C275.463074,335.257019 274.497864,331.054962 269.223114,333.798431 
	C269.002014,335.244965 268.725983,337.050934 268.449951,338.856934 
	C268.008423,338.930603 267.566895,339.004272 267.125397,339.077942 
	C266.742981,337.810425 266.360596,336.542877 265.964539,334.831360 
z"/>
<path fill="#16A34B" opacity="1.000000" stroke="none" 
	d="
M335.138611,335.731049 
	C334.880524,337.224640 334.650635,338.319489 334.420746,339.414368 
	C333.974823,339.377747 333.528870,339.341125 333.082947,339.304535 
	C333.082947,337.053864 333.082947,334.803192 333.082947,331.084137 
	C331.242065,334.737183 330.085297,337.032684 328.928528,339.328186 
	C328.468506,339.257538 328.008484,339.186859 327.548492,339.116211 
	C326.873016,336.686523 326.197540,334.256866 325.389923,331.351868 
	C324.822693,334.017273 324.345123,336.261261 323.867554,338.505280 
	C323.189301,338.437073 322.511047,338.368866 321.832794,338.300659 
	C322.225830,333.649994 322.618866,328.999329 323.012878,324.337067 
	C326.537170,324.416412 326.537170,324.416412 328.570862,332.154358 
	C332.119446,330.998108 329.643646,323.937439 336.071991,325.136353 
	C335.770782,328.529144 335.468811,331.930725 335.138611,335.731049 
z"/>
<path fill="#1AA54E" opacity="1.000000" stroke="none" 
	d="
M464.269470,370.309021 
	C462.674957,372.719177 461.388672,374.882294 459.427979,378.179596 
	C458.855042,373.639404 460.533020,368.869904 454.325500,368.933258 
	C453.607880,369.989868 452.704010,371.320709 451.786865,372.671143 
	C449.628937,370.501740 449.842560,369.847107 455.973938,359.479919 
	C465.217529,361.714844 467.541656,364.573334 464.269470,370.309021 
z"/>
<path fill="#1AA54E" opacity="1.000000" stroke="none" 
	d="
M469.722961,382.366333 
	C468.413635,381.605042 467.410095,381.040985 465.962097,380.227081 
	C468.357910,375.950714 470.660675,371.840454 472.938416,367.774841 
	C482.246429,371.916412 483.190826,372.691895 482.617401,375.727509 
	C479.617157,374.299225 476.655914,372.889526 473.694672,371.479797 
	C473.398071,372.055054 473.101501,372.630310 472.804901,373.205566 
	C475.066864,374.872498 477.328827,376.539429 479.590790,378.206360 
	C479.286835,378.715668 478.982849,379.224976 478.678864,379.734283 
	C476.312561,378.559814 473.946259,377.385376 471.150940,375.997986 
	C468.397583,382.893311 478.653046,380.582977 477.855530,386.728363 
	C474.997803,385.207703 472.513275,383.885620 469.722961,382.366333 
z"/>
<path fill="#16A34B" opacity="1.000000" stroke="none" 
	d="
M311.693787,337.953918 
	C308.789948,337.943604 306.328766,337.943604 303.477051,337.943604 
	C303.477051,335.031647 303.422028,332.769196 303.492310,330.510651 
	C303.564667,328.185333 303.759247,325.863892 303.942993,322.838501 
	C308.109406,323.172058 312.133148,323.494171 316.156921,323.816315 
	C316.122101,324.524231 316.087311,325.232178 316.052490,325.940125 
	C312.773193,325.940125 309.493896,325.940125 306.214600,325.940125 
	C306.117462,326.493469 306.020294,327.046814 305.923157,327.600128 
	C307.163513,328.026428 308.375824,328.606323 309.651489,328.838989 
	C311.147247,329.111755 312.698090,329.082397 314.376953,329.194183 
	C313.186310,334.253571 305.651642,327.558655 306.090088,334.605774 
	C309.696777,335.016846 313.101318,335.404877 316.505890,335.792908 
	C316.429535,336.440582 316.353210,337.088257 316.276886,337.735962 
	C314.896759,337.812042 313.516602,337.888153 311.693787,337.953918 
z"/>
<path fill="#1AA54E" opacity="1.000000" stroke="none" 
	d="
M504.237000,404.160645 
	C501.324615,402.123932 498.669403,400.302277 500.070282,396.207336 
	C503.774506,396.579956 502.465210,403.976227 508.325500,401.480469 
	C506.786774,399.391144 505.133698,397.558899 504.005157,395.446381 
	C503.409912,394.332153 503.136353,392.212250 503.780701,391.472382 
	C504.665131,390.456848 506.624023,389.753510 508.007263,389.913452 
	C512.097961,390.386353 514.368408,393.795532 513.629333,398.490936 
	C511.614532,396.135101 509.853790,394.076294 508.093048,392.017487 
	C507.587219,392.384003 507.081360,392.750549 506.575531,393.117065 
	C507.524994,394.605042 508.715759,395.996429 509.360229,397.606476 
	C510.095367,399.443115 510.343750,401.474609 510.803711,403.421387 
	C508.731140,403.724274 506.658539,404.027191 504.237000,404.160645 
z"/>
<path fill="#1AA54E" opacity="1.000000" stroke="none" 
	d="
M491.174500,391.772888 
	C490.946869,390.173798 490.260925,388.609406 489.746826,386.990479 
	C489.074036,384.871765 488.537048,382.709900 487.941650,380.566589 
	C490.028870,380.372681 492.351318,379.507782 494.149445,380.138306 
	C497.019043,381.144531 499.341614,383.246094 498.268829,387.775391 
	C495.755615,385.257233 493.866516,383.364410 491.977417,381.471588 
	C491.488495,381.923798 490.999603,382.376007 490.510681,382.828217 
	C491.882690,384.508240 493.546875,386.035645 494.530273,387.918610 
	C495.260468,389.316742 495.878204,391.924164 495.168091,392.656006 
	C494.085815,393.771454 491.601807,394.467896 490.087006,394.034607 
	C486.490540,393.005890 483.627563,390.834991 484.054962,385.460785 
	C486.673096,387.917603 488.732849,389.850433 491.174500,391.772888 
z"/>
<path fill="#1AA54E" opacity="1.000000" stroke="none" 
	d="
M400.345917,343.461548 
	C401.058990,341.571625 401.619904,340.041656 402.277344,338.248322 
	C404.656525,338.942017 406.868622,339.462097 408.990540,340.231110 
	C413.744293,341.953979 414.359131,344.639618 411.330933,348.865417 
	C410.569397,349.928162 410.551147,351.500580 410.064697,352.791046 
	C409.709991,353.731995 409.147278,354.594513 407.977142,355.478149 
	C408.188873,351.038818 407.327393,347.960907 402.333954,348.144745 
	C401.339386,349.620026 400.305298,351.153961 399.271210,352.687897 
	C398.790802,352.448486 398.310364,352.209106 397.829926,351.969696 
	C398.617889,349.253632 399.405823,346.537567 400.345917,343.461548 
M409.765228,343.811340 
	C408.273926,343.213867 406.812164,342.309540 405.277557,342.161743 
	C404.613373,342.097748 403.798889,343.594543 403.052673,344.382385 
	C404.450317,345.084198 405.799500,346.154785 407.264099,346.347382 
	C408.121613,346.460144 409.163269,345.172821 409.765228,343.811340 
z"/>
<path fill="#16A34B" opacity="1.000000" stroke="none" 
	d="
M297.811890,331.627747 
	C296.091858,338.875793 290.619232,337.690796 285.121674,337.799744 
	C285.121674,333.048096 285.121674,328.357025 285.121674,323.618286 
	C294.290771,321.867889 297.207855,323.582611 297.811890,331.627747 
M292.884888,326.233154 
	C291.146454,326.136658 289.407990,326.040192 287.534241,325.936188 
	C287.534241,329.165619 287.534241,331.894135 287.534241,335.823730 
	C290.281860,334.726501 293.166077,334.425323 294.272400,332.864227 
	C295.159973,331.611786 293.891235,328.831238 292.884888,326.233154 
z"/>
<path fill="#16A34B" opacity="1.000000" stroke="none" 
	d="
M436.029114,364.790344 
	C435.894592,361.788361 435.026093,358.421265 436.329163,356.669189 
	C437.739624,354.772736 441.591370,353.070129 443.610779,353.709015 
	C445.590210,354.335266 447.650421,357.961060 447.770538,360.365509 
	C447.913055,363.218384 446.020691,366.172943 444.936310,369.296265 
	C441.711823,367.751831 438.981659,366.444183 436.029114,364.790344 
M439.768280,364.332184 
	C443.782318,366.157227 441.370941,361.175964 443.026459,361.147461 
	C446.504883,361.087524 445.559784,358.516998 444.590271,357.684204 
	C443.481140,356.731506 440.792603,356.197052 439.721344,356.899872 
	C437.029327,358.666077 436.689362,361.367401 439.768280,364.332184 
z"/>
<path fill="#16A34B" opacity="1.000000" stroke="none" 
	d="
M391.606445,335.203796 
	C392.863403,337.379303 395.009705,339.961060 394.409271,341.382751 
	C392.261536,346.468231 387.897217,343.201691 384.050476,343.040558 
	C383.295746,344.599854 382.513977,346.214935 381.732239,347.830017 
	C381.128021,347.666626 380.523804,347.503265 379.919586,347.339874 
	C381.020630,342.815460 382.121674,338.291016 383.363342,333.188690 
	C386.211243,333.872101 388.723541,334.475006 391.606445,335.203796 
M391.957214,339.736176 
	C389.966949,338.530640 387.976654,337.325073 385.661346,335.922668 
	C384.886475,340.781372 386.484283,341.687622 391.957214,339.736176 
z"/>
<path fill="#1AA54E" opacity="1.000000" stroke="none" 
	d="
M429.330872,348.654694 
	C429.785828,349.578491 430.096283,350.177399 430.233673,350.813660 
	C431.120178,354.919189 429.705475,358.155334 425.902740,359.781769 
	C422.880493,361.074371 419.900360,360.308136 418.197357,357.211426 
	C416.266174,353.699768 417.038055,350.336304 419.936646,347.779846 
	C422.999298,345.078705 426.233276,345.182739 429.330872,348.654694 
M420.048248,353.653198 
	C421.681366,357.804871 424.053284,358.851654 426.215271,356.119965 
	C427.179321,354.901917 427.462646,352.797394 427.295288,351.173523 
	C427.207306,350.319794 424.990631,348.785736 424.581940,349.022186 
	C422.908539,349.990479 421.561096,351.522064 420.048248,353.653198 
z"/>
<path fill="#1AA54E" opacity="1.000000" stroke="none" 
	d="
M518.968384,415.198303 
	C517.562866,412.809875 515.621521,410.558533 515.649414,408.331879 
	C515.702087,404.127380 520.101868,401.114410 524.065186,401.956085 
	C528.007385,402.793304 529.448730,405.595459 528.919128,409.365814 
	C528.295593,413.803925 524.498169,416.080231 518.968384,415.198303 
M523.078003,412.712555 
	C524.015259,410.652405 525.080688,408.631104 525.730896,406.484070 
	C525.814148,406.209076 523.396667,404.509827 522.726318,404.805420 
	C521.075012,405.533539 519.025452,406.771454 518.477905,408.288635 
	C517.413147,411.239258 519.017883,413.030609 523.078003,412.712555 
z"/>
<path fill="#1AA54E" opacity="1.000000" stroke="none" 
	d="
M362.423950,330.144226 
	C363.369965,330.713867 363.930450,331.220490 364.490967,331.727112 
	C363.718292,332.093842 362.934601,332.788818 362.175079,332.763336 
	C360.201019,332.697113 358.237579,332.314331 356.269897,332.057861 
	C356.174896,332.517670 356.079895,332.977478 355.984894,333.437286 
	C358.138245,334.123688 360.291565,334.810059 362.444885,335.496460 
	C362.461395,335.854340 362.477875,336.212250 362.494354,336.570129 
	C359.978088,336.998444 357.461823,337.426788 354.945557,337.855103 
	C355.026062,338.391876 355.106567,338.928619 355.187073,339.465363 
	C357.804291,340.094666 360.421539,340.723938 363.038757,341.353210 
	C362.975555,341.955688 362.912354,342.558136 362.849152,343.160614 
	C359.368866,342.771667 355.888611,342.382751 351.958588,341.943542 
	C352.737823,337.434387 353.430267,333.427673 354.209381,328.919220 
	C356.934235,329.323639 359.486359,329.702454 362.423950,330.144226 
z"/>
<path fill="#1AA54E" opacity="1.000000" stroke="none" 
	d="
M247.042450,331.379181 
	C248.438721,326.905151 251.190704,324.771118 255.399368,326.199921 
	C259.173645,327.481293 260.560547,330.772675 259.878448,334.588074 
	C259.264893,338.019867 257.157654,340.226227 253.396988,340.157898 
	C249.479370,340.086700 247.343994,337.232880 247.042450,331.379181 
M249.929062,331.695862 
	C251.052444,333.574493 252.175827,335.453156 253.299210,337.331787 
	C254.476532,336.613281 256.597321,335.950867 256.644012,335.165222 
	C256.757690,333.252350 255.909210,331.282318 255.448212,329.335297 
	C253.677155,329.846008 251.906113,330.356750 249.929062,331.695862 
z"/>
<path fill="#E7EAF2" opacity="1.000000" stroke="none" 
	d="
M409.943665,344.163330 
	C409.163269,345.172821 408.121613,346.460144 407.264099,346.347382 
	C405.799500,346.154785 404.450317,345.084198 403.052673,344.382385 
	C403.798889,343.594543 404.613373,342.097748 405.277557,342.161743 
	C406.812164,342.309540 408.273926,343.213867 409.943665,344.163330 
z"/>
<path fill="#F5F9F8" opacity="1.000000" stroke="none" 
	d="
M293.232147,326.480988 
	C293.891235,328.831238 295.159973,331.611786 294.272400,332.864227 
	C293.166077,334.425323 290.281860,334.726501 287.534241,335.823730 
	C287.534241,331.894135 287.534241,329.165619 287.534241,325.936188 
	C289.407990,326.040192 291.146454,326.136658 293.232147,326.480988 
z"/>
<path fill="#F5F9F8" opacity="1.000000" stroke="none" 
	d="
M439.424408,364.149506 
	C436.689362,361.367401 437.029327,358.666077 439.721344,356.899872 
	C440.792603,356.197052 443.481140,356.731506 444.590271,357.684204 
	C445.559784,358.516998 446.504883,361.087524 443.026459,361.147461 
	C441.370941,361.175964 443.782318,366.157227 439.424408,364.149506 
z"/>
<path fill="#E7EAF2" opacity="1.000000" stroke="none" 
	d="
M391.855896,340.145691 
	C386.484283,341.687622 384.886475,340.781372 385.661346,335.922668 
	C387.976654,337.325073 389.966949,338.530640 391.855896,340.145691 
z"/>
<path fill="#F5F9F8" opacity="1.000000" stroke="none" 
	d="
M420.070984,353.249756 
	C421.561096,351.522064 422.908539,349.990479 424.581940,349.022186 
	C424.990631,348.785736 427.207306,350.319794 427.295288,351.173523 
	C427.462646,352.797394 427.179321,354.901917 426.215271,356.119965 
	C424.053284,358.851654 421.681366,357.804871 420.070984,353.249756 
z"/>
<path fill="#F5F9F8" opacity="1.000000" stroke="none" 
	d="
M522.696045,412.815430 
	C519.017883,413.030609 517.413147,411.239258 518.477905,408.288635 
	C519.025452,406.771454 521.075012,405.533539 522.726318,404.805420 
	C523.396667,404.509827 525.814148,406.209076 525.730896,406.484070 
	C525.080688,408.631104 524.015259,410.652405 522.696045,412.815430 
z"/>
<path fill="#F5F9F8" opacity="1.000000" stroke="none" 
	d="
M250.032074,331.281677 
	C251.906113,330.356750 253.677155,329.846008 255.448212,329.335297 
	C255.909210,331.282318 256.757690,333.252350 256.644012,335.165222 
	C256.597321,335.950867 254.476532,336.613281 253.299210,337.331787 
	C252.175827,335.453156 251.052444,333.574493 250.032074,331.281677 
z"/>
</svg>