<svg version="1.1" id="Layer_1" xmlns="http://www.w3.org/2000/svg" xmlns:xlink="http://www.w3.org/1999/xlink" x="0px" y="0px"
	 width="100%" viewBox="0 0 500 500" enable-background="new 0 0 500 500" xml:space="preserve">
<path fill="#3D3C6F" opacity="1.000000" stroke="none" 
	d="
M1.000000,50.000000 
	C1.000000,33.690594 1.000000,17.381186 1.000000,1.000000 
	C84.020882,1.000000 167.041779,1.000000 250.531754,1.468657 
	C251.051178,14.324493 251.101517,26.711672 251.099014,39.558647 
	C251.079697,52.673073 251.113205,65.327705 251.092102,78.447113 
	C251.075623,91.307549 251.113739,103.703194 251.099030,116.558640 
	C251.079712,129.673080 251.113235,142.327728 251.092300,155.447479 
	C251.075836,168.308029 251.113846,180.703430 251.099030,193.558655 
	C251.079712,206.673080 251.113235,219.327728 251.092300,232.447479 
	C251.035934,245.234283 251.034027,257.555969 250.575073,269.998901 
	C167.740814,270.133698 85.363609,270.147614 2.986399,270.154083 
	C2.324270,270.154144 1.662133,270.053589 1.000000,270.000000 
	C1.000000,255.312439 1.000000,240.624878 1.312369,225.619476 
	C2.940430,226.203827 4.256121,227.106018 5.663014,228.070740 
	C5.804657,227.657486 11.255117,211.755432 11.314778,211.581375 
	C7.845002,211.385803 4.422501,211.192902 1.000000,211.000000 
	C1.000000,197.979111 1.000000,184.958206 1.297635,171.647491 
	C2.902998,172.274307 4.210726,173.190948 6.519630,174.809341 
	C5.484446,170.681564 3.475899,167.259903 4.336109,164.871445 
	C5.283062,162.242142 8.867080,160.562592 11.848195,158.000000 
	C7.790500,158.000000 4.395250,158.000000 1.000000,158.000000 
	C1.000000,144.979111 1.000000,131.958206 1.329497,118.382462 
	C3.090319,118.672333 4.521643,119.517059 5.952967,120.361794 
	C1.900645,112.676903 4.742004,107.795280 11.287423,104.000000 
	C7.858282,104.000000 4.429141,104.000000 1.000000,104.000000 
	C1.000000,90.979103 1.000000,77.958214 1.345520,64.444717 
	C3.186551,64.909615 4.682060,65.867104 6.177570,66.824593 
	C2.308457,59.439373 3.925563,53.995522 11.305161,50.000000 
	C7.870107,50.000000 4.435053,50.000000 1.000000,50.000000 
M53.679459,173.951492 
	C59.159439,167.583344 64.471031,169.384171 69.923599,174.234283 
	C68.957260,170.960083 67.990929,167.685883 67.021477,164.401123 
	C69.717850,162.389404 72.180489,160.552078 74.643135,158.714752 
	C66.326775,159.835663 62.297405,155.986938 61.104492,147.519867 
	C59.933075,156.037125 55.661777,159.805527 47.598408,158.776443 
	C50.083836,160.664352 52.569263,162.552246 54.802490,164.248581 
	C54.179867,167.762344 53.619278,170.925995 52.650620,173.780716 
	C52.569439,174.059937 52.488258,174.339142 52.407078,174.618362 
	C52.599014,174.405304 52.790955,174.192261 53.679459,173.951492 
M21.614950,147.224594 
	C24.205940,145.458694 26.796930,143.692780 29.455019,141.881149 
	C32.186085,143.774124 34.822811,145.601700 38.318653,148.024765 
	C37.246319,143.891876 35.211952,140.472977 36.031364,137.999481 
	C36.897842,135.383911 40.481743,133.668533 43.557411,130.962830 
	C39.639194,130.962830 36.573341,130.962830 33.305756,130.962830 
	C32.022846,127.417458 30.834772,124.134178 29.415268,120.211327 
	C28.010717,124.137070 26.852922,127.373123 25.556227,130.997406 
	C22.303116,130.997406 19.110544,130.997406 15.917972,130.997406 
	C23.329950,134.590256 23.988441,139.949966 20.959007,146.544037 
	C20.902267,146.667542 21.007771,146.865585 20.655462,147.091309 
	C20.710398,147.250443 20.765333,147.409592 20.820267,147.568726 
	C20.857061,147.360321 20.893854,147.151917 21.614950,147.224594 
M116.674835,174.063461 
	C119.261932,172.313568 121.849022,170.563675 124.420479,168.824356 
	C127.244560,170.782318 129.844620,172.584961 133.448669,175.083679 
	C132.158112,170.631577 131.257538,167.524780 130.368042,164.456192 
	C133.084412,162.356277 135.491638,160.495361 137.898880,158.634460 
	C128.807892,160.272797 125.705826,155.253143 124.802589,146.213196 
	C122.967682,151.089951 121.708984,154.435287 120.356308,158.030396 
	C117.053284,158.030396 113.993660,158.030396 110.934044,158.030396 
	C118.590591,161.514954 118.715317,167.060379 115.939041,173.566620 
	C115.887299,173.687851 116.011276,173.884048 115.708328,174.026352 
	C115.795258,174.002655 115.882179,173.978973 116.674835,174.063461 
M116.615158,120.222336 
	C119.219429,118.473991 121.823700,116.725655 124.413719,114.986877 
	C127.205688,116.898064 129.833786,118.697075 133.231995,121.023239 
	C132.171356,116.907814 130.124756,113.457191 130.959763,110.976547 
	C131.840759,108.359291 135.471069,106.667480 137.900284,104.571365 
	C129.488419,105.848534 125.444298,101.989571 124.635246,93.725082 
	C123.024384,97.081612 122.709824,101.272835 120.500259,102.916313 
	C118.209030,104.620514 114.082146,103.856758 110.153656,104.229790 
	C113.077423,106.568520 116.773216,108.088120 117.568810,110.546356 
	C118.446350,113.257797 116.662498,116.830566 115.656532,120.096573 
	C115.710617,120.255707 115.764709,120.414833 115.818802,120.573967 
	C115.856094,120.363586 115.893394,120.153206 116.615158,120.222336 
M196.070404,174.298080 
	C196.170929,174.232849 196.271454,174.167633 196.371979,174.102402 
	C196.230057,174.083679 196.088135,174.064972 196.153351,173.260941 
	C192.530060,166.538422 194.474487,161.595398 201.857864,157.828491 
	C192.035248,160.585556 189.197586,154.895782 187.818771,146.663177 
	C186.213470,150.986923 185.879166,155.075943 183.672699,156.898636 
	C181.625076,158.590103 177.578583,157.861786 172.673431,158.384048 
	C181.660034,161.832520 182.789047,167.186737 179.563675,174.424179 
	C182.214111,172.578430 184.864548,170.732681 187.399124,168.967621 
	C190.400757,170.702103 193.215912,172.328842 196.070404,174.298080 
M195.898804,120.303879 
	C196.111526,120.343262 196.324249,120.382645 196.536972,120.422035 
	C196.345322,120.291008 196.153687,120.159988 196.109390,119.236176 
	C192.367294,112.377289 194.873413,107.650894 201.250534,103.854416 
	C197.988342,103.854416 194.726166,103.854416 191.478210,103.854416 
	C190.192444,100.369774 189.031906,97.224564 187.871384,94.079353 
	C187.440414,93.809319 187.009430,93.539276 186.578461,93.269234 
	C187.237274,103.125320 181.744308,105.131172 173.446762,104.303848 
	C181.662964,107.928108 182.854004,113.292519 179.528915,120.578239 
	C182.206406,118.716156 184.883896,116.854080 187.331635,115.151779 
	C190.430878,116.851196 193.250549,118.397316 195.898804,120.303879 
M195.793747,66.347160 
	C196.039902,66.412331 196.286057,66.477501 196.532211,66.542671 
	C196.352112,66.363960 196.172028,66.185242 196.100922,65.225479 
	C192.036133,58.275620 195.175873,53.768814 201.192200,49.934799 
	C197.903992,49.934799 194.615768,49.934799 191.442963,49.934799 
	C190.168655,46.467030 189.005142,43.300720 187.841614,40.134415 
	C187.260086,49.438107 181.577591,51.365223 173.156998,50.459347 
	C181.982971,53.891033 182.425980,59.640278 177.920441,67.838615 
	C182.171707,64.903831 184.878494,63.035248 187.312119,61.355240 
	C190.404465,62.991028 193.222382,64.481651 195.793747,66.347160 
M211.733383,254.899582 
	C217.002457,248.857666 222.377686,249.749054 228.251419,255.364746 
	C223.918350,247.717133 225.552643,242.542465 233.559174,238.791641 
	C224.593384,240.418961 220.519867,236.421371 219.242828,227.931641 
	C218.254272,236.700394 213.973221,240.488998 204.881638,238.807602 
	C212.986359,242.319946 214.118393,247.519333 210.815201,254.232819 
	C210.716064,254.434296 211.013824,254.831055 210.815781,255.018723 
	C210.726608,255.090668 210.637436,255.162613 210.548264,255.234573 
	C210.616333,255.262222 210.709167,255.332199 210.747803,255.309586 
	C210.863068,255.242096 210.957047,255.138290 211.733383,254.899582 
M211.677979,201.029846 
	C216.953186,195.145859 222.337524,195.793991 228.262939,201.489319 
	C223.480545,193.658630 226.364395,188.731903 234.037018,185.003647 
	C223.177917,183.617035 223.177917,183.617035 218.747238,173.087128 
	C218.380798,182.898605 213.844147,186.435089 204.765167,184.762390 
	C213.003098,188.323868 213.995438,193.762985 210.899017,200.600113 
	C210.850021,200.708313 211.000107,200.906693 210.690521,200.948792 
	C210.661011,201.149918 210.631516,201.351044 210.602005,201.552170 
	C210.725494,201.354980 210.848984,201.157806 211.677979,201.029846 
M116.698265,227.998810 
	C121.955994,222.191772 127.335625,222.644943 133.264252,228.405655 
	C128.892517,220.688248 130.788116,215.581238 138.678513,211.824158 
	C129.791779,213.261307 125.370789,209.675430 124.339111,200.868011 
	C123.288559,209.681412 119.054031,213.547241 109.858498,211.753860 
	C118.365005,215.259460 118.851738,220.845062 115.932053,227.578796 
	C115.881584,227.695190 116.015167,227.891418 115.764900,228.041840 
	C115.841393,228.018066 115.917885,227.994293 116.698265,227.998810 
M17.005232,186.573486 
	C25.251015,189.537537 22.460087,195.627930 20.149580,202.221268 
	C23.973225,199.554611 26.673262,197.671570 29.431032,195.748260 
	C32.231705,197.688019 34.856586,199.506027 37.481468,201.324036 
	C37.973206,201.271133 38.464943,201.218216 38.956684,201.165314 
	C33.060822,193.349655 37.112751,188.635605 43.710728,184.372635 
	C34.489033,186.614975 30.584049,182.548248 29.402147,173.931839 
	C28.341621,182.295059 24.424637,186.118423 16.378643,184.461823 
	C16.193714,184.423721 15.696100,184.900024 15.728435,184.978867 
	C15.899595,185.396271 16.193836,185.763199 17.005232,186.573486 
M147.586472,199.547485 
	C147.445190,200.167191 147.303925,200.786880 147.075790,201.787598 
	C150.310349,199.728928 153.176651,196.487686 156.062195,196.470474 
	C158.892899,196.453598 161.743149,199.715439 165.175049,201.916962 
	C163.972702,198.021408 162.966965,194.762863 161.934402,191.417343 
	C164.708710,189.324738 167.306808,187.365036 169.904907,185.405334 
	C161.667160,186.415222 157.136719,182.959015 155.891144,174.182251 
	C155.088135,183.392960 150.234009,186.165436 142.136826,185.319763 
	C144.792770,187.383514 147.448715,189.447281 150.082825,191.494064 
	C149.269257,194.121521 148.536621,196.487564 147.586472,199.547485 
M177.473099,215.093781 
	C184.994797,218.322784 178.605240,223.722443 179.271225,228.416000 
	C182.205032,226.457047 184.791962,223.373962 187.386902,223.367218 
	C190.142471,223.360016 192.905655,226.271347 195.665527,227.908188 
	C191.980301,220.511230 194.506882,215.447372 202.074570,211.474472 
	C192.366409,214.083984 189.024200,209.023605 187.502747,200.933014 
	C186.660278,209.700562 182.420990,213.345154 174.000671,212.262848 
	C174.944641,213.067169 175.888596,213.871490 177.473099,215.093781 
M105.640114,186.169815 
	C105.346832,185.577988 104.935814,184.438873 104.777176,184.472992 
	C97.668343,186.002243 94.415825,182.572815 93.523102,175.935608 
	C93.466698,175.516251 92.969955,175.156113 92.550636,174.599182 
	C91.319572,177.766037 90.957573,181.861618 88.770874,183.458450 
	C86.448875,185.154099 82.395737,184.479141 79.098579,184.839417 
	C86.708946,188.586777 87.822029,194.072632 83.941910,201.675659 
	C89.789963,195.610794 95.212318,194.835068 100.860458,201.924149 
	C100.117935,190.224869 100.117935,190.224869 105.640114,186.169815 
M144.390030,238.389603 
	C140.828445,238.549316 142.541565,240.040985 143.999588,240.648483 
	C150.728638,243.452103 149.956543,248.161392 147.563126,253.427628 
	C147.348892,253.899033 147.425095,254.502457 147.366409,255.044571 
	C153.299911,247.965179 158.900116,249.830414 164.840927,255.011658 
	C163.903015,251.753403 162.965088,248.495148 162.022141,245.219437 
	C164.737289,243.134354 167.242371,241.210571 169.747467,239.286789 
	C169.794708,238.815353 169.841949,238.343918 169.889191,237.872482 
	C160.823471,240.858032 157.410263,236.101257 156.016266,228.213013 
	C154.051727,234.067581 153.336807,240.387451 144.390030,238.389603 
M86.286308,245.005768 
	C85.572998,248.301300 84.859688,251.596848 84.002815,255.555664 
	C87.076546,253.485611 89.633560,250.413208 92.226128,250.382904 
	C95.031799,250.350128 97.870636,253.155914 100.703003,254.728104 
	C100.702888,254.381042 105.894844,238.994415 107.184532,237.348221 
	C96.840950,241.800369 94.567177,235.300201 92.387856,228.102829 
	C91.844833,237.047195 87.128998,240.087524 79.010574,239.458298 
	C81.258308,241.100876 83.506042,242.743439 86.286308,245.005768 
M61.778126,202.449631 
	C61.523895,202.302078 61.249249,202.011932 61.020840,202.044647 
	C60.760979,202.081848 60.353687,202.389847 60.333176,202.610168 
	C59.608505,210.395081 54.995502,212.694748 47.873066,211.519745 
	C47.799614,211.507629 47.681404,211.766830 47.285408,212.306152 
	C49.892418,214.335800 52.532047,216.390854 55.097179,218.387894 
	C54.051617,221.933090 53.114471,225.110672 52.177326,228.288254 
	C57.480797,222.824890 62.730297,221.505157 69.282745,227.743942 
	C65.236595,219.770050 68.608109,215.375565 74.932838,212.546371 
	C74.442024,211.864548 74.360725,211.629700 74.245346,211.611557 
	C73.602600,211.510483 72.919968,211.300568 72.308311,211.420441 
	C66.265762,212.604553 63.027393,210.018829 62.229706,204.054016 
	C62.186050,203.727585 62.065395,203.411438 61.778126,202.449631 
M30.739931,231.025284 
	C30.349852,230.141998 29.959772,229.258728 29.410736,228.015518 
	C28.141689,231.434860 27.822588,235.557877 25.617361,237.318619 
	C23.412588,239.078949 19.321348,238.476593 16.057068,238.909943 
	C23.851196,242.459885 24.059151,248.155319 20.821875,255.507385 
	C26.708487,248.639374 32.248634,249.601990 38.782097,255.376480 
	C32.153458,246.912598 37.434883,242.744812 44.850185,238.362259 
	C37.696583,238.385803 31.404343,240.136963 30.739931,231.025284 
M86.067535,32.266647 
	C85.364647,34.700714 84.661751,37.134781 83.713799,40.417484 
	C87.241455,37.987751 89.938354,36.130215 92.686485,34.237389 
	C95.317223,35.961910 97.820221,37.602695 100.323219,39.243481 
	C100.816589,39.169693 101.309959,39.095901 101.803322,39.022114 
	C96.513435,31.258932 100.405815,26.905239 106.389595,23.022274 
	C103.131935,23.022274 99.874275,23.022274 96.446777,23.022274 
	C95.234703,19.614874 94.096245,16.414427 92.689354,12.459382 
	C91.284531,16.473351 90.166733,19.667187 88.903503,23.276558 
	C85.424202,23.276558 82.101715,23.276558 79.277016,23.276558 
	C81.657120,26.060812 83.970909,28.767490 86.067535,32.266647 
M17.322058,25.187408 
	C24.988306,28.120857 22.701412,33.960827 20.343315,40.492325 
	C24.164444,37.834557 26.737560,36.044838 29.409346,34.186489 
	C32.178352,36.094616 34.874874,37.952801 37.571400,39.810982 
	C34.078358,32.335064 35.740955,26.872988 44.068527,23.130520 
	C34.852123,25.133677 30.457886,21.554899 29.218849,13.149664 
	C28.057663,16.369469 26.896475,19.589273 25.670452,22.988857 
	C22.742517,22.988857 19.929573,22.958344 17.122007,23.066931 
	C16.958731,23.073248 16.839056,24.207006 17.322058,25.187408 
M51.510178,54.019028 
	C52.679260,54.923210 53.848347,55.827396 55.104595,56.798996 
	C54.112938,60.185368 53.160194,63.438858 52.007690,67.374519 
	C55.521362,64.971008 58.372162,63.020939 61.140778,61.127083 
	C64.101463,63.193268 66.784706,65.065834 70.202484,67.451012 
	C68.963654,63.312534 67.983109,60.036884 66.984802,56.701908 
	C68.548019,55.558342 69.900742,54.604145 71.213669,53.598003 
	C72.443733,52.655361 73.631668,51.657730 75.296936,50.314121 
	C71.283890,50.000732 67.259331,50.821903 65.036392,49.189590 
	C62.866646,47.596333 62.537186,43.496922 61.399834,40.497723 
	C60.168724,48.912907 55.197060,51.747864 47.348934,50.897022 
	C48.537792,51.793705 49.726650,52.690384 51.510178,54.019028 
M228.273575,76.985985 
	C226.510727,76.985985 224.747879,76.985985 223.067017,76.985985 
	C221.791000,73.361778 220.709473,70.289955 219.290924,66.260910 
	C217.880112,70.330620 216.762512,73.554573 215.538742,77.084732 
	C212.206573,77.084732 208.974777,77.084732 205.742981,77.084732 
	C213.705841,80.829544 214.242462,86.578094 211.083817,93.741158 
	C213.783554,91.854546 216.483307,89.967934 219.314423,87.989502 
	C222.100845,89.941124 224.818359,91.844490 227.535889,93.747849 
	C223.889847,86.184746 225.577820,80.880142 232.893448,76.985985 
	C231.624374,76.985985 230.355316,76.985985 228.273575,76.985985 
M227.689514,39.719982 
	C224.617966,32.686928 226.173721,27.184912 233.434738,22.964664 
	C224.872894,24.992369 220.282364,21.690603 219.167007,13.185532 
	C217.907303,16.489214 216.647614,19.792898 215.291168,23.350338 
	C211.757507,23.350338 208.575974,23.350338 205.394424,23.350338 
	C212.652588,26.954504 214.887802,31.953814 211.384964,39.539032 
	C214.063431,37.751629 216.741913,35.964226 219.399597,34.190697 
	C222.092285,36.104118 224.528412,37.835236 227.689514,39.719982 
M121.379318,48.047123 
	C117.878151,49.006992 114.376991,49.966862 110.441315,51.045856 
	C117.974953,53.815273 119.709747,59.122196 116.483345,66.501976 
	C119.071106,64.745003 121.658875,62.988026 124.396156,61.129528 
	C127.126892,63.011822 129.831543,64.876144 132.536209,66.740463 
	C128.480606,58.912151 131.248184,53.946983 138.021500,49.967499 
	C134.748108,49.967499 131.474731,49.967499 128.086807,49.967499 
	C126.898590,46.569862 125.793198,43.409061 124.327835,39.218941 
	C123.224815,42.600887 122.461365,44.941700 121.379318,48.047123 
M86.549385,83.864288 
	C85.700111,87.043571 84.850830,90.222855 83.751945,94.336571 
	C87.349121,91.790749 90.020401,89.900200 92.724327,87.986557 
	C95.635719,90.026932 98.344543,91.925346 101.053368,93.823761 
	C97.125603,86.173523 99.308296,81.044586 106.205650,76.966118 
	C102.952332,76.966118 99.699005,76.966118 96.519112,76.966118 
	C95.228767,73.445831 94.063850,70.267731 92.898933,67.089638 
	C91.841690,75.704689 87.100700,78.814011 78.994934,77.813141 
	C81.361435,79.603943 83.727928,81.394737 86.549385,83.864288 
M25.744436,76.611221 
	C22.410244,76.826660 19.076050,77.042099 15.741857,77.257530 
	C22.999197,80.730019 24.730984,85.872406 21.840410,93.176239 
	C24.398243,91.465683 26.956076,89.755119 29.544218,88.024300 
	C32.321896,89.993835 34.952572,91.859154 38.322529,94.248657 
	C37.280994,90.128326 35.204144,86.559021 36.045300,83.919662 
	C36.869591,81.333214 40.664162,79.693375 43.812874,77.095314 
	C39.799286,77.095314 36.565140,77.095314 33.226067,77.095314 
	C31.992640,73.561890 30.861288,70.320877 29.453909,66.289116 
	C28.157108,69.964508 27.121241,72.900368 25.744436,76.611221 
M226.682648,130.814972 
	C219.224930,131.129150 222.635452,123.636581 218.725800,120.529953 
	C218.401962,128.862991 214.111694,132.871399 204.893173,131.352341 
	C214.076340,134.733963 213.816956,140.642761 209.648270,148.611023 
	C213.844528,145.680817 216.544342,143.795547 219.345840,141.839294 
	C222.142914,143.803787 224.824036,145.686829 228.453705,148.236084 
	C227.143311,143.827209 226.215347,140.705048 225.276749,137.547073 
	C227.980545,135.455215 230.482941,133.519180 233.978134,130.815033 
	C230.846985,130.815033 229.190125,130.815033 226.682648,130.814972 
M95.429771,128.153366 
	C94.596092,125.674728 93.762413,123.196098 92.928734,120.717461 
	C91.627167,128.724625 87.649933,132.811417 79.244377,131.774597 
	C81.711708,133.670105 84.179039,135.565613 86.767914,137.554504 
	C85.787193,140.872940 84.843399,144.066452 83.616104,148.219208 
	C87.262466,145.669876 89.958191,143.785172 92.744576,141.837082 
	C95.598679,143.846161 98.297401,145.745865 100.996124,147.645584 
	C101.611893,147.600555 102.227661,147.555542 102.843430,147.510513 
	C95.962173,139.654495 99.953522,135.048203 106.762848,131.180038 
	C104.325836,130.818268 102.469093,131.068970 100.717758,130.746780 
	C99.014259,130.433365 97.418747,129.532944 95.429771,128.153366 
M152.869385,75.544937 
	C149.405304,76.274384 145.941223,77.003838 141.472900,77.944748 
	C149.633484,80.910881 151.404510,85.950966 146.662674,93.168983 
	C147.106781,93.302963 147.550888,93.436943 147.994995,93.570923 
	C150.615097,91.750122 153.235184,89.929329 155.993881,88.012222 
	C158.564011,89.788551 161.043991,91.502579 163.523972,93.216599 
	C164.023560,93.149155 164.523148,93.081703 165.022736,93.014259 
	C160.116684,85.491142 163.242905,80.811752 170.155533,77.000786 
	C160.980453,79.389091 157.369751,74.951584 155.599350,67.403381 
	C154.753586,69.846909 153.907822,72.290436 152.869385,75.544937 
M163.929581,147.402405 
	C164.180099,147.388763 164.442902,147.413727 164.674362,147.340164 
	C164.753433,147.315033 164.821152,147.022491 164.780426,146.886063 
	C163.845520,143.754730 162.894928,140.628098 161.947159,137.500320 
	C164.760117,135.398453 167.297531,133.502502 169.834930,131.606537 
	C169.957062,131.031845 170.079178,130.457138 170.201309,129.882446 
	C160.548859,133.929047 157.772812,128.273300 155.852127,120.640244 
	C154.973373,129.488220 150.421722,132.656601 141.158936,130.419891 
	C144.971878,133.679092 148.783905,135.396667 149.511826,137.982452 
	C150.277374,140.701874 148.092087,144.251968 146.987900,148.180161 
	C150.524414,145.698502 153.331467,143.728729 156.053406,141.818665 
	C158.741302,143.753922 161.031006,145.402496 163.929581,147.402405 
M169.416534,23.088188 
	C166.136536,23.088188 162.856537,23.088188 159.785126,23.088188 
	C158.488525,19.503971 157.411438,16.526564 156.334351,13.549156 
	C155.031418,22.107321 150.168228,24.777510 141.537323,23.269361 
	C150.118912,27.011162 151.301926,32.554871 147.654663,40.019306 
	C150.416580,38.071877 153.178482,36.124447 156.000549,34.134609 
	C158.923370,36.172619 161.664703,38.084080 164.406036,39.995544 
	C159.989807,32.288952 162.947128,27.438461 169.416534,23.088188 
M64.610558,103.145638 
	C63.535740,100.214798 62.460926,97.283958 61.386108,94.353119 
	C60.089260,102.922134 55.006378,105.408379 46.224133,103.610680 
	C55.042622,110.937271 55.042622,110.937271 52.179501,120.910172 
	C55.660969,118.610298 58.440243,116.774300 61.193970,114.955170 
	C64.093590,117.016953 66.793968,118.937057 70.211052,121.366783 
	C68.995438,117.287788 68.016342,114.002457 67.016304,110.646828 
	C69.704842,108.576225 72.261070,106.607529 74.817291,104.638832 
	C74.725281,104.305382 74.633278,103.971939 74.541267,103.638489 
	C71.456429,103.638489 68.371582,103.638489 64.610558,103.145638 
z"/>
<path fill="#FFFEFE" opacity="1.000000" stroke="none" 
	d="
M1.000000,463.000000 
	C1.000000,450.312439 1.000000,437.624878 1.468657,424.467896 
	C168.291550,423.998993 334.645782,423.999512 501.000000,424.000000 
	C501.000000,436.687561 501.000000,449.375122 500.532410,462.497070 
	C334.708160,462.927887 169.351501,462.924194 3.994847,462.923981 
	C2.996564,462.923981 1.998282,462.973541 1.000000,463.000000 
z"/>
<path fill="#FFFEFE" opacity="1.000000" stroke="none" 
	d="
M501.000000,347.000000 
	C501.000000,359.687561 501.000000,372.375122 500.532410,385.497070 
	C334.708160,385.927887 169.351501,385.924133 3.994847,385.923950 
	C2.996565,385.923950 1.998282,385.973572 1.000000,386.000000 
	C1.000000,373.312439 1.000000,360.624878 1.468657,347.467896 
	C168.291550,346.998993 334.645782,346.999512 501.000000,347.000000 
z"/>
<path fill="#FEFEFE" opacity="1.000000" stroke="none" 
	d="
M1.000000,270.468658 
	C1.662133,270.053589 2.324270,270.154144 2.986399,270.154083 
	C85.363609,270.147614 167.740814,270.133698 251.038330,270.051056 
	C334.972412,269.987946 417.986206,269.993988 501.000000,270.000000 
	C501.000000,282.687561 501.000000,295.375122 500.532349,308.497833 
	C334.708130,308.929443 169.351547,308.925812 3.994955,308.925598 
	C2.996637,308.925598 1.998318,308.974121 1.000000,309.000000 
	C1.000000,296.312439 1.000000,283.624878 1.000000,270.468658 
z"/>
<path fill="#B22234" opacity="1.000000" stroke="none" 
	d="
M1.000000,463.468628 
	C1.998282,462.973541 2.996564,462.923981 3.994847,462.923981 
	C169.351501,462.924194 334.708160,462.927887 500.532410,462.965759 
	C501.000000,475.657043 501.000000,488.314056 501.000000,500.954681 
	C334.333313,500.954681 167.666656,500.954681 1.000000,500.954681 
	C1.000000,488.585358 1.000000,476.261322 1.000000,463.468628 
z"/>
<path fill="#B22234" opacity="1.000000" stroke="none" 
	d="
M1.000000,386.468658 
	C1.998282,385.973572 2.996565,385.923950 3.994847,385.923950 
	C169.351501,385.924133 334.708160,385.927887 500.532410,385.965759 
	C501.000000,398.354218 501.000000,410.708466 501.000000,423.531342 
	C334.645782,423.999512 168.291550,423.998993 1.468657,423.999237 
	C1.000000,411.645782 1.000000,399.291534 1.000000,386.468658 
z"/>
<path fill="#B22234" opacity="1.000000" stroke="none" 
	d="
M1.000000,309.468628 
	C1.998318,308.974121 2.996637,308.925598 3.994955,308.925598 
	C169.351547,308.925812 334.708130,308.929443 500.532349,308.966492 
	C501.000000,321.354218 501.000000,333.708466 501.000000,346.531342 
	C334.645782,346.999512 168.291550,346.998993 1.468657,346.999237 
	C1.000000,334.645782 1.000000,322.291534 1.000000,309.468628 
z"/>
<path fill="#FFFEFE" opacity="1.000000" stroke="none" 
	d="
M251.146729,77.982330 
	C251.113205,65.327705 251.079697,52.673073 251.555328,39.550816 
	C264.061493,39.081928 276.058502,39.083298 288.055511,39.078972 
	C359.037018,39.053383 430.018494,39.026466 501.000000,39.000000 
	C501.000000,51.687561 501.000000,64.375122 500.531342,77.532127 
	C417.090698,77.995155 334.118713,77.988739 251.146729,77.982330 
z"/>
<path fill="#FFFEFE" opacity="1.000000" stroke="none" 
	d="
M251.146759,231.982361 
	C251.113235,219.327728 251.079712,206.673080 251.555328,193.550812 
	C264.061493,193.081909 276.058502,193.083298 288.055511,193.078964 
	C359.037018,193.053375 430.018494,193.026459 501.000000,193.000000 
	C501.000000,205.687561 501.000000,218.375122 500.531342,231.532120 
	C417.090698,231.995163 334.118744,231.988770 251.146759,231.982361 
z"/>
<path fill="#FFFEFE" opacity="1.000000" stroke="none" 
	d="
M251.146759,154.982361 
	C251.113235,142.327728 251.079712,129.673080 251.555328,116.550812 
	C264.061493,116.081932 276.058502,116.083305 288.055511,116.078979 
	C359.037018,116.053383 430.018494,116.026466 501.000000,116.000000 
	C501.000000,128.687561 501.000000,141.375122 500.531342,154.532120 
	C417.090698,154.995163 334.118744,154.988770 251.146759,154.982361 
z"/>
<path fill="#B22234" opacity="1.000000" stroke="none" 
	d="
M501.000000,38.531342 
	C430.018494,39.026466 359.037018,39.053383 288.055511,39.078972 
	C276.058502,39.083298 264.061493,39.081928 251.608154,39.091019 
	C251.101517,26.711672 251.051178,14.324493 251.000412,1.468657 
	C334.333344,1.000000 417.666718,1.000000 501.000000,1.000000 
	C501.000000,13.433536 501.000000,25.748110 501.000000,38.531342 
z"/>
<path fill="#B22234" opacity="1.000000" stroke="none" 
	d="
M251.092300,232.447479 
	C334.118744,231.988770 417.090698,231.995163 500.531342,232.000778 
	C501.000000,244.354233 501.000000,256.708466 501.000000,269.531342 
	C417.986206,269.993988 334.972412,269.987946 251.495377,269.929779 
	C251.034027,257.555969 251.035934,245.234283 251.092300,232.447479 
z"/>
<path fill="#B22234" opacity="1.000000" stroke="none" 
	d="
M251.092300,155.447479 
	C334.118744,154.988770 417.090698,154.995163 500.531342,155.000778 
	C501.000000,167.354233 501.000000,179.708450 501.000000,192.531342 
	C430.018494,193.026459 359.037018,193.053375 288.055511,193.078964 
	C276.058502,193.083298 264.061493,193.081909 251.608154,193.091003 
	C251.113846,180.703430 251.075836,168.308029 251.092300,155.447479 
z"/>
<path fill="#B22234" opacity="1.000000" stroke="none" 
	d="
M501.000000,115.531342 
	C430.018494,116.026466 359.037018,116.053383 288.055511,116.078979 
	C276.058502,116.083305 264.061493,116.081932 251.608154,116.091019 
	C251.113739,103.703194 251.075623,91.307549 251.092117,78.447113 
	C334.118713,77.988739 417.090698,77.995155 500.531342,78.000786 
	C501.000000,90.354225 501.000000,102.708458 501.000000,115.531342 
z"/>
<path fill="#EBEBF0" opacity="1.000000" stroke="none" 
	d="
M1.000000,211.464645 
	C4.422501,211.192902 7.845002,211.385803 11.314778,211.581375 
	C11.255117,211.755432 5.804657,227.657486 5.663014,228.070740 
	C4.256121,227.106018 2.940430,226.203827 1.312369,225.150818 
	C1.000000,220.643097 1.000000,216.286194 1.000000,211.464645 
z"/>
<path fill="#F7F7F9" opacity="1.000000" stroke="none" 
	d="
M1.000000,50.464653 
	C4.435053,50.000000 7.870107,50.000000 11.305161,50.000000 
	C3.925563,53.995522 2.308457,59.439373 6.177570,66.824593 
	C4.682060,65.867104 3.186551,64.909615 1.345520,63.976063 
	C1.000000,59.643101 1.000000,55.286201 1.000000,50.464653 
z"/>
<path fill="#F7F7F9" opacity="1.000000" stroke="none" 
	d="
M1.000000,104.464645 
	C4.429141,104.000000 7.858282,104.000000 11.287423,104.000000 
	C4.742004,107.795280 1.900645,112.676903 5.952967,120.361794 
	C4.521643,119.517059 3.090319,118.672333 1.329497,117.913803 
	C1.000000,113.643097 1.000000,109.286201 1.000000,104.464645 
z"/>
<path fill="#F6F6F9" opacity="1.000000" stroke="none" 
	d="
M1.000000,158.463181 
	C4.395250,158.000000 7.790500,158.000000 11.848195,158.000000 
	C8.867080,160.562592 5.283062,162.242142 4.336109,164.871445 
	C3.475899,167.259903 5.484446,170.681564 6.519630,174.809341 
	C4.210726,173.190948 2.902998,172.274307 1.297635,171.178833 
	C1.000000,166.975449 1.000000,162.950912 1.000000,158.463181 
z"/>
<path fill="#F1F0F4" opacity="1.000000" stroke="none" 
	d="
M16.725323,186.360550 
	C16.193836,185.763199 15.899595,185.396271 15.728435,184.978867 
	C15.696100,184.900024 16.193714,184.423721 16.378643,184.461823 
	C24.424637,186.118423 28.341621,182.295059 29.402147,173.931839 
	C30.584049,182.548248 34.489033,186.614975 43.710728,184.372635 
	C37.112751,188.635605 33.060822,193.349655 38.956684,201.165314 
	C38.464943,201.218216 37.973206,201.271133 37.481468,201.324036 
	C34.856586,199.506027 32.231705,197.688019 29.431032,195.748260 
	C26.673262,197.671570 23.973225,199.554611 20.149580,202.221268 
	C22.460087,195.627930 25.251015,189.537537 16.725323,186.360550 
z"/>
<path fill="#F2F2F5" opacity="1.000000" stroke="none" 
	d="
M147.695236,199.200546 
	C148.536621,196.487564 149.269257,194.121521 150.082825,191.494064 
	C147.448715,189.447281 144.792770,187.383514 142.136826,185.319763 
	C150.234009,186.165436 155.088135,183.392960 155.891144,174.182251 
	C157.136719,182.959015 161.667160,186.415222 169.904907,185.405334 
	C167.306808,187.365036 164.708710,189.324738 161.934402,191.417343 
	C162.966965,194.762863 163.972702,198.021408 165.175049,201.916962 
	C161.743149,199.715439 158.892899,196.453598 156.062195,196.470474 
	C153.176651,196.487686 150.310349,199.728928 147.075790,201.787598 
	C147.303925,200.786880 147.445190,200.167191 147.695236,199.200546 
z"/>
<path fill="#F1F0F4" opacity="1.000000" stroke="none" 
	d="
M116.062866,228.050385 
	C116.015167,227.891418 115.881584,227.695190 115.932053,227.578796 
	C118.851738,220.845062 118.365005,215.259460 109.858498,211.753860 
	C119.054031,213.547241 123.288559,209.681412 124.339111,200.868011 
	C125.370789,209.675430 129.791779,213.261307 138.678513,211.824158 
	C130.788116,215.581238 128.892517,220.688248 133.264252,228.405655 
	C127.335625,222.644943 121.955994,222.191772 116.361099,228.006653 
	C116.023926,228.014481 116.062866,228.050385 116.062866,228.050385 
z"/>
<path fill="#F1F1F4" opacity="1.000000" stroke="none" 
	d="
M211.057281,201.062973 
	C211.000107,200.906693 210.850021,200.708313 210.899017,200.600113 
	C213.995438,193.762985 213.003098,188.323868 204.765167,184.762390 
	C213.844147,186.435089 218.380798,182.898605 218.747238,173.087128 
	C223.177917,183.617035 223.177917,183.617035 234.037018,185.003647 
	C226.364395,188.731903 223.480545,193.658630 228.262939,201.489319 
	C222.337524,195.793991 216.953186,195.145859 211.346130,201.021057 
	C211.014282,201.012283 211.057281,201.062973 211.057281,201.062973 
z"/>
<path fill="#F1F1F5" opacity="1.000000" stroke="none" 
	d="
M177.152832,214.884796 
	C175.888596,213.871490 174.944641,213.067169 174.000671,212.262848 
	C182.420990,213.345154 186.660278,209.700562 187.502747,200.933014 
	C189.024200,209.023605 192.366409,214.083984 202.074570,211.474472 
	C194.506882,215.447372 191.980301,220.511230 195.665527,227.908188 
	C192.905655,226.271347 190.142471,223.360016 187.386902,223.367218 
	C184.791962,223.373962 182.205032,226.457047 179.271225,228.416000 
	C178.605240,223.722443 184.994797,218.322784 177.152832,214.884796 
z"/>
<path fill="#F1F0F4" opacity="1.000000" stroke="none" 
	d="
M105.362549,186.393921 
	C100.117935,190.224869 100.117935,190.224869 100.860458,201.924149 
	C95.212318,194.835068 89.789963,195.610794 83.941910,201.675659 
	C87.822029,194.072632 86.708946,188.586777 79.098579,184.839417 
	C82.395737,184.479141 86.448875,185.154099 88.770874,183.458450 
	C90.957573,181.861618 91.319572,177.766037 92.550636,174.599182 
	C92.969955,175.156113 93.466698,175.516251 93.523102,175.935608 
	C94.415825,182.572815 97.668343,186.002243 104.777176,184.472992 
	C104.935814,184.438873 105.346832,185.577988 105.362549,186.393921 
z"/>
<path fill="#F0F0F4" opacity="1.000000" stroke="none" 
	d="
M144.783203,238.389130 
	C153.336807,240.387451 154.051727,234.067581 156.016266,228.213013 
	C157.410263,236.101257 160.823471,240.858032 169.889191,237.872482 
	C169.841949,238.343918 169.794708,238.815353 169.747467,239.286789 
	C167.242371,241.210571 164.737289,243.134354 162.022141,245.219437 
	C162.965088,248.495148 163.903015,251.753403 164.840927,255.011658 
	C158.900116,249.830414 153.299911,247.965179 147.366409,255.044571 
	C147.425095,254.502457 147.348892,253.899033 147.563126,253.427628 
	C149.956543,248.161392 150.728638,243.452103 143.999588,240.648483 
	C142.541565,240.040985 140.828445,238.549316 144.783203,238.389130 
z"/>
<path fill="#F1F1F5" opacity="1.000000" stroke="none" 
	d="
M86.020050,244.695892 
	C83.506042,242.743439 81.258308,241.100876 79.010574,239.458298 
	C87.128998,240.087524 91.844833,237.047195 92.387856,228.102829 
	C94.567177,235.300201 96.840950,241.800369 107.184532,237.348221 
	C105.894844,238.994415 100.702888,254.381042 100.703003,254.728104 
	C97.870636,253.155914 95.031799,250.350128 92.226128,250.382904 
	C89.633560,250.413208 87.076546,253.485611 84.002815,255.555664 
	C84.859688,251.596848 85.572998,248.301300 86.020050,244.695892 
z"/>
<path fill="#F1F1F5" opacity="1.000000" stroke="none" 
	d="
M211.126526,255.136765 
	C211.013824,254.831055 210.716064,254.434296 210.815201,254.232819 
	C214.118393,247.519333 212.986359,242.319946 204.881638,238.807602 
	C213.973221,240.488998 218.254272,236.700394 219.242828,227.931641 
	C220.519867,236.421371 224.593384,240.418961 233.559174,238.791641 
	C225.552643,242.542465 223.918350,247.717133 228.251419,255.364746 
	C222.377686,249.749054 217.002457,248.857666 211.411224,254.997650 
	C211.089050,255.095703 211.126526,255.136765 211.126526,255.136765 
z"/>
<path fill="#F1F1F5" opacity="1.000000" stroke="none" 
	d="
M61.879356,202.770081 
	C62.065395,203.411438 62.186050,203.727585 62.229706,204.054016 
	C63.027393,210.018829 66.265762,212.604553 72.308311,211.420441 
	C72.919968,211.300568 73.602600,211.510483 74.245346,211.611557 
	C74.360725,211.629700 74.442024,211.864548 74.932838,212.546371 
	C68.608109,215.375565 65.236595,219.770050 69.282745,227.743942 
	C62.730297,221.505157 57.480797,222.824890 52.177326,228.288254 
	C53.114471,225.110672 54.051617,221.933090 55.097179,218.387894 
	C52.532047,216.390854 49.892418,214.335800 47.285408,212.306152 
	C47.681404,211.766830 47.799614,211.507629 47.873066,211.519745 
	C54.995502,212.694748 59.608505,210.395081 60.333176,202.610168 
	C60.353687,202.389847 60.760979,202.081848 61.020840,202.044647 
	C61.249249,202.011932 61.523895,202.302078 61.879356,202.770081 
z"/>
<path fill="#F1F1F4" opacity="1.000000" stroke="none" 
	d="
M30.847855,231.391907 
	C31.404343,240.136963 37.696583,238.385803 44.850185,238.362259 
	C37.434883,242.744812 32.153458,246.912598 38.782097,255.376480 
	C32.248634,249.601990 26.708487,248.639374 20.821875,255.507385 
	C24.059151,248.155319 23.851196,242.459885 16.057068,238.909943 
	C19.321348,238.476593 23.412588,239.078949 25.617361,237.318619 
	C27.822588,235.557877 28.141689,231.434860 29.410736,228.015518 
	C29.959772,229.258728 30.349852,230.141998 30.847855,231.391907 
z"/>
<path fill="#F8F8FA" opacity="1.000000" stroke="none" 
	d="
M86.176117,31.870407 
	C83.970909,28.767490 81.657120,26.060812 79.277016,23.276558 
	C82.101715,23.276558 85.424202,23.276558 88.903503,23.276558 
	C90.166733,19.667187 91.284531,16.473351 92.689354,12.459382 
	C94.096245,16.414427 95.234703,19.614874 96.446777,23.022274 
	C99.874275,23.022274 103.131935,23.022274 106.389595,23.022274 
	C100.405815,26.905239 96.513435,31.258932 101.803322,39.022114 
	C101.309959,39.095901 100.816589,39.169693 100.323219,39.243481 
	C97.820221,37.602695 95.317223,35.961910 92.686485,34.237389 
	C89.938354,36.130215 87.241455,37.987751 83.713799,40.417484 
	C84.661751,37.134781 85.364647,34.700714 86.176117,31.870407 
z"/>
<path fill="#F7F7F9" opacity="1.000000" stroke="none" 
	d="
M17.010574,25.001745 
	C16.839056,24.207006 16.958731,23.073248 17.122007,23.066931 
	C19.929573,22.958344 22.742517,22.988857 25.670452,22.988857 
	C26.896475,19.589273 28.057663,16.369469 29.218849,13.149664 
	C30.457886,21.554899 34.852123,25.133677 44.068527,23.130520 
	C35.740955,26.872988 34.078358,32.335064 37.571400,39.810982 
	C34.874874,37.952801 32.178352,36.094616 29.409346,34.186489 
	C26.737560,36.044838 24.164444,37.834557 20.343315,40.492325 
	C22.701412,33.960827 24.988306,28.120857 17.010574,25.001745 
z"/>
<path fill="#F8F8FA" opacity="1.000000" stroke="none" 
	d="
M51.212845,53.803047 
	C49.726650,52.690384 48.537792,51.793705 47.348934,50.897022 
	C55.197060,51.747864 60.168724,48.912907 61.399834,40.497723 
	C62.537186,43.496922 62.866646,47.596333 65.036392,49.189590 
	C67.259331,50.821903 71.283890,50.000732 75.296936,50.314121 
	C73.631668,51.657730 72.443733,52.655361 71.213669,53.598003 
	C69.900742,54.604145 68.548019,55.558342 66.984802,56.701908 
	C67.983109,60.036884 68.963654,63.312534 70.202484,67.451012 
	C66.784706,65.065834 64.101463,63.193268 61.140778,61.127083 
	C58.372162,63.020939 55.521362,64.971008 52.007690,67.374519 
	C53.160194,63.438858 54.112938,60.185368 55.104595,56.798996 
	C53.848347,55.827396 52.679260,54.923210 51.212845,53.803047 
z"/>
<path fill="#F8F8FA" opacity="1.000000" stroke="none" 
	d="
M228.679901,76.985985 
	C230.355316,76.985985 231.624374,76.985985 232.893448,76.985985 
	C225.577820,80.880142 223.889847,86.184746 227.535889,93.747849 
	C224.818359,91.844490 222.100845,89.941124 219.314423,87.989502 
	C216.483307,89.967934 213.783554,91.854546 211.083817,93.741158 
	C214.242462,86.578094 213.705841,80.829544 205.742981,77.084732 
	C208.974777,77.084732 212.206573,77.084732 215.538742,77.084732 
	C216.762512,73.554573 217.880112,70.330620 219.290924,66.260910 
	C220.709473,70.289955 221.791000,73.361778 223.067017,76.985985 
	C224.747879,76.985985 226.510727,76.985985 228.679901,76.985985 
z"/>
<path fill="#F7F7F9" opacity="1.000000" stroke="none" 
	d="
M227.327026,39.643166 
	C224.528412,37.835236 222.092285,36.104118 219.399597,34.190697 
	C216.741913,35.964226 214.063431,37.751629 211.384964,39.539032 
	C214.887802,31.953814 212.652588,26.954504 205.394424,23.350338 
	C208.575974,23.350338 211.757507,23.350338 215.291168,23.350338 
	C216.647614,19.792898 217.907303,16.489214 219.167007,13.185532 
	C220.282364,21.690603 224.872894,24.992369 233.434738,22.964664 
	C226.173721,27.184912 224.617966,32.686928 227.327026,39.643166 
z"/>
<path fill="#F7F7F9" opacity="1.000000" stroke="none" 
	d="
M121.538612,47.664818 
	C122.461365,44.941700 123.224815,42.600887 124.327835,39.218941 
	C125.793198,43.409061 126.898590,46.569862 128.086807,49.967499 
	C131.474731,49.967499 134.748108,49.967499 138.021500,49.967499 
	C131.248184,53.946983 128.480606,58.912151 132.536209,66.740463 
	C129.831543,64.876144 127.126892,63.011822 124.396156,61.129528 
	C121.658875,62.988026 119.071106,64.745003 116.483345,66.501976 
	C119.709747,59.122196 117.974953,53.815273 110.441315,51.045856 
	C114.376991,49.966862 117.878151,49.006992 121.538612,47.664818 
z"/>
<path fill="#F7F7F9" opacity="1.000000" stroke="none" 
	d="
M86.321907,83.524910 
	C83.727928,81.394737 81.361435,79.603943 78.994934,77.813141 
	C87.100700,78.814011 91.841690,75.704689 92.898933,67.089638 
	C94.063850,70.267731 95.228767,73.445831 96.519112,76.966118 
	C99.699005,76.966118 102.952332,76.966118 106.205650,76.966118 
	C99.308296,81.044586 97.125603,86.173523 101.053368,93.823761 
	C98.344543,91.925346 95.635719,90.026932 92.724327,87.986557 
	C90.020401,89.900200 87.349121,91.790749 83.751945,94.336571 
	C84.850830,90.222855 85.700111,87.043571 86.321907,83.524910 
z"/>
<path fill="#F8F8FA" opacity="1.000000" stroke="none" 
	d="
M196.040298,65.972267 
	C193.222382,64.481651 190.404465,62.991028 187.312119,61.355240 
	C184.878494,63.035248 182.171707,64.903831 177.920441,67.838615 
	C182.425980,59.640278 181.982971,53.891033 173.156998,50.459347 
	C181.577591,51.365223 187.260086,49.438107 187.841614,40.134415 
	C189.005142,43.300720 190.168655,46.467030 191.442963,49.934799 
	C194.615768,49.934799 197.903992,49.934799 201.192200,49.934799 
	C195.175873,53.768814 192.036133,58.275620 196.057175,65.607605 
	C196.013428,65.989731 196.040298,65.972267 196.040298,65.972267 
z"/>
<path fill="#F8F8FA" opacity="1.000000" stroke="none" 
	d="
M25.914904,76.223724 
	C27.121241,72.900368 28.157108,69.964508 29.453909,66.289116 
	C30.861288,70.320877 31.992640,73.561890 33.226067,77.095314 
	C36.565140,77.095314 39.799286,77.095314 43.812874,77.095314 
	C40.664162,79.693375 36.869591,81.333214 36.045300,83.919662 
	C35.204144,86.559021 37.280994,90.128326 38.322529,94.248657 
	C34.952572,91.859154 32.321896,89.993835 29.544218,88.024300 
	C26.956076,89.755119 24.398243,91.465683 21.840410,93.176239 
	C24.730984,85.872406 22.999197,80.730019 15.741857,77.257530 
	C19.076050,77.042099 22.410244,76.826660 25.914904,76.223724 
z"/>
<path fill="#F7F7F9" opacity="1.000000" stroke="none" 
	d="
M227.107956,130.815002 
	C229.190125,130.815033 230.846985,130.815033 233.978134,130.815033 
	C230.482941,133.519180 227.980545,135.455215 225.276749,137.547073 
	C226.215347,140.705048 227.143311,143.827209 228.453705,148.236084 
	C224.824036,145.686829 222.142914,143.803787 219.345840,141.839294 
	C216.544342,143.795547 213.844528,145.680817 209.648270,148.611023 
	C213.816956,140.642761 214.076340,134.733963 204.893173,131.352341 
	C214.111694,132.871399 218.401962,128.862991 218.725800,120.529953 
	C222.635452,123.636581 219.224930,131.129150 227.107956,130.815002 
z"/>
<path fill="#F8F8FA" opacity="1.000000" stroke="none" 
	d="
M95.602798,128.521820 
	C97.418747,129.532944 99.014259,130.433365 100.717758,130.746780 
	C102.469093,131.068970 104.325836,130.818268 106.762848,131.180038 
	C99.953522,135.048203 95.962173,139.654495 102.843430,147.510513 
	C102.227661,147.555542 101.611893,147.600555 100.996124,147.645584 
	C98.297401,145.745865 95.598679,143.846161 92.744576,141.837082 
	C89.958191,143.785172 87.262466,145.669876 83.616104,148.219208 
	C84.843399,144.066452 85.787193,140.872940 86.767914,137.554504 
	C84.179039,135.565613 81.711708,133.670105 79.244377,131.774597 
	C87.649933,132.811417 91.627167,128.724625 92.928734,120.717461 
	C93.762413,123.196098 94.596092,125.674728 95.602798,128.521820 
z"/>
<path fill="#F9F9FA" opacity="1.000000" stroke="none" 
	d="
M152.965714,75.139450 
	C153.907822,72.290436 154.753586,69.846909 155.599350,67.403381 
	C157.369751,74.951584 160.980453,79.389091 170.155533,77.000786 
	C163.242905,80.811752 160.116684,85.491142 165.022736,93.014259 
	C164.523148,93.081703 164.023560,93.149155 163.523972,93.216599 
	C161.043991,91.502579 158.564011,89.788551 155.993881,88.012222 
	C153.235184,89.929329 150.615097,91.750122 147.994995,93.570923 
	C147.550888,93.436943 147.106781,93.302963 146.662674,93.168983 
	C151.404510,85.950966 149.633484,80.910881 141.472900,77.944748 
	C145.941223,77.003838 149.405304,76.274384 152.965714,75.139450 
z"/>
<path fill="#F7F7F9" opacity="1.000000" stroke="none" 
	d="
M163.625153,147.226746 
	C161.031006,145.402496 158.741302,143.753922 156.053406,141.818665 
	C153.331467,143.728729 150.524414,145.698502 146.987900,148.180161 
	C148.092087,144.251968 150.277374,140.701874 149.511826,137.982452 
	C148.783905,135.396667 144.971878,133.679092 141.158936,130.419891 
	C150.421722,132.656601 154.973373,129.488220 155.852127,120.640244 
	C157.772812,128.273300 160.548859,133.929047 170.201309,129.882446 
	C170.079178,130.457138 169.957062,131.031845 169.834930,131.606537 
	C167.297531,133.502502 164.760117,135.398453 161.947159,137.500320 
	C162.894928,140.628098 163.845520,143.754730 164.780426,146.886063 
	C164.821152,147.022491 164.753433,147.315033 164.674362,147.340164 
	C164.442902,147.413727 164.180099,147.388763 163.625153,147.226746 
z"/>
<path fill="#F9F9FA" opacity="1.000000" stroke="none" 
	d="
M169.566864,23.448532 
	C162.947128,27.438461 159.989807,32.288952 164.406036,39.995544 
	C161.664703,38.084080 158.923370,36.172619 156.000549,34.134609 
	C153.178482,36.124447 150.416580,38.071877 147.654663,40.019306 
	C151.301926,32.554871 150.118912,27.011162 141.537323,23.269361 
	C150.168228,24.777510 155.031418,22.107321 156.334351,13.549156 
	C157.411438,16.526564 158.488525,19.503971 159.785126,23.088188 
	C162.856537,23.088188 166.136536,23.088188 169.566864,23.448532 
z"/>
<path fill="#F8F8FA" opacity="1.000000" stroke="none" 
	d="
M64.948647,103.392059 
	C68.371582,103.638489 71.456429,103.638489 74.541267,103.638489 
	C74.633278,103.971939 74.725281,104.305382 74.817291,104.638832 
	C72.261070,106.607529 69.704842,108.576225 67.016304,110.646828 
	C68.016342,114.002457 68.995438,117.287788 70.211052,121.366783 
	C66.793968,118.937057 64.093590,117.016953 61.193970,114.955170 
	C58.440243,116.774300 55.660969,118.610298 52.179501,120.910172 
	C55.042622,110.937271 55.042622,110.937271 46.224133,103.610680 
	C55.006378,105.408379 60.089260,102.922134 61.386108,94.353119 
	C62.460926,97.283958 63.535740,100.214798 64.948647,103.392059 
z"/>
<path fill="#F7F7F9" opacity="1.000000" stroke="none" 
	d="
M196.070221,119.943436 
	C193.250549,118.397316 190.430878,116.851196 187.331635,115.151779 
	C184.883896,116.854080 182.206406,118.716156 179.528915,120.578239 
	C182.854004,113.292519 181.662964,107.928108 173.446762,104.303848 
	C181.744308,105.131172 187.237274,103.125320 186.578461,93.269234 
	C187.009430,93.539276 187.440414,93.809319 187.871384,94.079353 
	C189.031906,97.224564 190.192444,100.369774 191.478210,103.854416 
	C194.726166,103.854416 197.988342,103.854416 201.250534,103.854416 
	C194.873413,107.650894 192.367294,112.377289 196.062408,119.610733 
	C196.015411,119.985283 196.070221,119.943436 196.070221,119.943436 
z"/>
<path fill="#F7F7F9" opacity="1.000000" stroke="none" 
	d="
M196.031067,173.955566 
	C193.215912,172.328842 190.400757,170.702103 187.399124,168.967621 
	C184.864548,170.732681 182.214111,172.578430 179.563675,174.424179 
	C182.789047,167.186737 181.660034,161.832520 172.673431,158.384048 
	C177.578583,157.861786 181.625076,158.590103 183.672699,156.898636 
	C185.879166,155.075943 186.213470,150.986923 187.818771,146.663177 
	C189.197586,154.895782 192.035248,160.585556 201.857864,157.828491 
	C194.474487,161.595398 192.530060,166.538422 196.072083,173.631927 
	C195.990799,174.002930 196.031067,173.955566 196.031067,173.955566 
z"/>
<path fill="#F7F7F9" opacity="1.000000" stroke="none" 
	d="
M116.037933,120.028152 
	C116.662498,116.830566 118.446350,113.257797 117.568810,110.546356 
	C116.773216,108.088120 113.077423,106.568520 110.153656,104.229790 
	C114.082146,103.856758 118.209030,104.620514 120.500259,102.916313 
	C122.709824,101.272835 123.024384,97.081612 124.635246,93.725082 
	C125.444298,101.989571 129.488419,105.848534 137.900284,104.571365 
	C135.471069,106.667480 131.840759,108.359291 130.959763,110.976547 
	C130.124756,113.457191 132.171356,116.907814 133.231995,121.023239 
	C129.833786,118.697075 127.205688,116.898064 124.413719,114.986877 
	C121.823700,116.725655 119.219429,118.473991 116.299973,120.103622 
	C115.984779,119.984901 116.037933,120.028152 116.037933,120.028152 
z"/>
<path fill="#F8F8FA" opacity="1.000000" stroke="none" 
	d="
M116.053268,174.045273 
	C116.011276,173.884048 115.887299,173.687851 115.939041,173.566620 
	C118.715317,167.060379 118.590591,161.514954 110.934044,158.030396 
	C113.993660,158.030396 117.053284,158.030396 120.356308,158.030396 
	C121.708984,154.435287 122.967682,151.089951 124.802589,146.213196 
	C125.705826,155.253143 128.807892,160.272797 137.898880,158.634460 
	C135.491638,160.495361 133.084412,162.356277 130.368042,164.456192 
	C131.257538,167.524780 132.158112,170.631577 133.448669,175.083679 
	C129.844620,172.584961 127.244560,170.782318 124.420479,168.824356 
	C121.849022,170.563675 119.261932,172.313568 116.341888,174.032928 
	C116.008934,174.002380 116.053261,174.045273 116.053268,174.045273 
z"/>
<path fill="#F6F6F9" opacity="1.000000" stroke="none" 
	d="
M21.037573,147.028839 
	C21.007771,146.865585 20.902267,146.667542 20.959007,146.544037 
	C23.988441,139.949966 23.329950,134.590256 15.917972,130.997406 
	C19.110544,130.997406 22.303116,130.997406 25.556227,130.997406 
	C26.852922,127.373123 28.010717,124.137070 29.415268,120.211327 
	C30.834772,124.134178 32.022846,127.417458 33.305756,130.962830 
	C36.573341,130.962830 39.639194,130.962830 43.557411,130.962830 
	C40.481743,133.668533 36.897842,135.383911 36.031364,137.999481 
	C35.211952,140.472977 37.246319,143.891876 38.318653,148.024765 
	C34.822811,145.601700 32.186085,143.774124 29.455019,141.881149 
	C26.796930,143.692780 24.205940,145.458694 21.299864,147.104965 
	C20.984777,146.985336 21.037573,147.028839 21.037573,147.028839 
z"/>
<path fill="#F7F7F9" opacity="1.000000" stroke="none" 
	d="
M53.058693,174.089645 
	C53.619278,170.925995 54.179867,167.762344 54.802490,164.248581 
	C52.569263,162.552246 50.083836,160.664352 47.598408,158.776443 
	C55.661777,159.805527 59.933075,156.037125 61.104492,147.519867 
	C62.297405,155.986938 66.326775,159.835663 74.643135,158.714752 
	C72.180489,160.552078 69.717850,162.389404 67.021477,164.401123 
	C67.990929,167.685883 68.957260,170.960083 69.923599,174.234283 
	C64.471031,169.384171 59.159439,167.583344 53.351562,173.991974 
	C53.023670,174.032455 53.058689,174.089645 53.058693,174.089645 
z"/>
<path fill="#F1F0F4" opacity="1.000000" stroke="none" 
	d="
M116.009155,227.992508 
	C115.917885,227.994293 115.841393,228.018066 115.913879,228.046112 
	C116.062866,228.050385 116.023926,228.014481 116.009155,227.992508 
z"/>
<path fill="#F8F8FA" opacity="1.000000" stroke="none" 
	d="
M196.002686,65.998131 
	C196.172028,66.185242 196.352112,66.363960 196.532211,66.542671 
	C196.286057,66.477501 196.039902,66.412331 195.917023,66.159714 
	C196.040298,65.972267 196.013428,65.989731 196.002686,65.998131 
z"/>
<path fill="#F7F7F9" opacity="1.000000" stroke="none" 
	d="
M195.988724,120.007126 
	C196.153687,120.159988 196.345322,120.291008 196.536972,120.422035 
	C196.324249,120.382645 196.111526,120.343262 195.984512,120.123657 
	C196.070221,119.943436 196.015411,119.985283 195.988724,120.007126 
z"/>
<path fill="#F7F7F9" opacity="1.000000" stroke="none" 
	d="
M195.968506,174.024597 
	C196.088135,174.064972 196.230057,174.083679 196.371979,174.102402 
	C196.271454,174.167633 196.170929,174.232849 196.050735,174.126831 
	C196.031067,173.955566 195.990799,174.002930 195.968506,174.024597 
z"/>
<path fill="#F1F1F5" opacity="1.000000" stroke="none" 
	d="
M211.074203,255.072205 
	C210.957047,255.138290 210.863068,255.242096 210.747803,255.309586 
	C210.709167,255.332199 210.616333,255.262222 210.548264,255.234573 
	C210.637436,255.162613 210.726608,255.090668 210.971161,255.077744 
	C211.126526,255.136765 211.089050,255.095703 211.074203,255.072205 
z"/>
<path fill="#F8F8FA" opacity="1.000000" stroke="none" 
	d="
M115.989021,173.978821 
	C115.882179,173.978973 115.795258,174.002655 115.880798,174.035812 
	C116.053261,174.045273 116.008934,174.002380 115.989021,173.978821 
z"/>
<path fill="#F7F7F9" opacity="1.000000" stroke="none" 
	d="
M53.003281,174.005829 
	C52.790955,174.192261 52.599014,174.405304 52.407078,174.618362 
	C52.488258,174.339142 52.569439,174.059937 52.854652,173.935181 
	C53.058689,174.089645 53.023670,174.032455 53.003281,174.005829 
z"/>
<path fill="#F6F6F9" opacity="1.000000" stroke="none" 
	d="
M20.957714,146.964417 
	C20.893854,147.151917 20.857061,147.360321 20.820269,147.568726 
	C20.765333,147.409592 20.710398,147.250443 20.846518,147.060074 
	C21.037573,147.028839 20.984777,146.985336 20.957714,146.964417 
z"/>
<path fill="#F7F7F9" opacity="1.000000" stroke="none" 
	d="
M115.957733,119.963867 
	C115.893394,120.153206 115.856094,120.363586 115.818802,120.573967 
	C115.764709,120.414833 115.710617,120.255707 115.847229,120.062363 
	C116.037933,120.028152 115.984779,119.984901 115.957733,119.963867 
z"/>
<path fill="#F1F1F4" opacity="1.000000" stroke="none" 
	d="
M210.993378,200.986450 
	C210.848984,201.157806 210.725494,201.354980 210.602020,201.552170 
	C210.631516,201.351044 210.661011,201.149918 210.873901,201.005890 
	C211.057281,201.062973 211.014282,201.012283 210.993378,200.986450 
z"/>
</svg>